<svg width="28" height="28" viewBox="0 0 28 28" fill="none" xmlns="http://www.w3.org/2000/svg">
<path d="M1 21.5555V14.1479H4H9.20282C10.0306 14.1479 10.8215 14.4899 11.3885 15.093L16.5 20.5298C16.5 20.5298 20 20.4917 21.5 20.5298C23 20.5678 23 23.0369 21.5001 23.037H24.5C26.5 23.037 26.5 26.0001 24.5 26L12.1553 26C11.7267 26 11.3141 25.8623 10.9696 25.6071L6.0304 21.9484C5.68594 21.6932 5.2686 21.5555 4.83993 21.5555H4H1Z" fill="black" fill-opacity="0.1"/>
<path d="M12 10.2001L17.5 15.6294L23 10.1999C28 5.75524 22.5 -0.659607 17.5 3.29085C12.5 -0.658491 6.5 5.26136 12 10.2001Z" fill="black" fill-opacity="0.1"/>
<path d="M4 14.1479H1V21.5555H4M4 14.1479V21.5555M4 14.1479H9.20282C10.0306 14.1479 10.8215 14.4899 11.3885 15.093L16.5 20.5298M4 21.5555H4.83993C5.2686 21.5555 5.68594 21.6932 6.0304 21.9484L10.9696 25.6071C11.3141 25.8623 11.7267 26 12.1553 26C14.5528 26 22.7954 25.9999 24.5 26C26.5 26.0001 26.5 23.037 24.5 23.037C22.5 23.037 21.5 23.037 21.5 23.037M9.48214 18.4444L14.6157 22.7171C14.864 22.9238 15.1769 23.037 15.5 23.037V23.037M15.5 23.037H21.5M15.5 23.037C17 23.037 17.5 21.5555 16.5 20.5298M16.5 20.5298C16.5 20.5298 20 20.4917 21.5 20.5298C23 20.5678 23 23.037 21.5 23.037M17.5 15.6294L12 10.2001C6.5 5.26136 12.5 -0.658491 17.5 3.29085C22.5 -0.659607 28 5.75524 23 10.1999L17.5 15.6294Z" stroke="#222529" stroke-width="2"/>
</svg>
