<svg width="28" height="28" viewBox="0 0 28 28" fill="none" xmlns="http://www.w3.org/2000/svg">
<path fill-rule="evenodd" clip-rule="evenodd" d="M14 1.96127C12.6483 1.96127 11.1356 1.22887 9.87712 1.22887C8.61864 1.22887 7.68644 1.96127 6.75424 1.96127C5.40254 1.96127 4.93644 1 3.91102 1C2.88559 1 2 1.86972 2 3.15141C2 4.66197 3.11864 5.07394 3.11864 6.21831C3.11864 7.54577 2.32627 8.59859 2.32627 9.92606C2.32627 11.5282 3.11864 12.2606 3.11864 14.0458C3.11864 15.831 2.32627 16.4718 2.32627 18.0739C2.32627 19.4014 3.11864 20.4542 3.11864 21.7817C3.11864 22.9261 2 23.338 2 24.8486C2 26.1303 2.88559 27 3.91102 27C4.93644 27 5.40254 26.0387 6.75424 26.0387C7.68644 26.0387 8.61864 26.7711 9.87712 26.7711C11.1356 26.7711 12.6483 26.0387 14 26.0387C15.3517 26.0387 16.8644 26.7711 18.1229 26.7711C19.3814 26.7711 20.3136 26.0387 21.2458 26.0387C22.5975 26.0387 23.0636 27 24.089 27C25.1144 27 26 26.1303 26 24.8486C26 23.338 24.8814 22.9261 24.8814 21.7817C24.8814 20.4542 25.6737 19.4014 25.6737 18.0739C25.6737 16.4718 24.8814 15.831 24.8814 14.0458C24.8814 12.2606 25.6737 11.5282 25.6737 9.92606C25.6737 8.59859 24.8814 7.54577 24.8814 6.21831C24.8814 5.07394 26 4.66197 26 3.15141C26 1.86972 25.1144 1 24.089 1C23.0636 1 22.5975 1.96127 21.2458 1.96127C20.3136 1.96127 19.3814 1.22887 18.1229 1.22887C16.8644 1.22887 15.3517 1.96127 14 1.96127ZM7 7C7 6.44771 7.44772 6 8 6H20C20.5523 6 21 6.44772 21 7V18V21C21 21.5523 20.5523 22 20 22H8C7.44772 22 7 21.5523 7 21V18V7Z" fill="black" fill-opacity="0.1" stroke="#222529" stroke-width="2"/>
<path fill-rule="evenodd" clip-rule="evenodd" d="M13 13C13 13.5523 12.5523 14 12 14C11.4477 14 11 13.5523 11 13C11 12.4477 11.4477 12 12 12C12.5523 12 13 12.4477 13 13ZM17 13C17 13.5523 16.5523 14 16 14C15.4477 14 15 13.5523 15 13C15 12.4477 15.4477 12 16 12C16.5523 12 17 12.4477 17 13ZM12.65 15H15.35C15.4328 15 15.5005 15.0676 15.4961 15.1503C15.4247 16.5 14.3862 16.5 14 16.5C13.6138 16.5 12.5753 16.5 12.5039 15.1503C12.4995 15.0676 12.5672 15 12.65 15Z" fill="#222529"/>
</svg>
