<svg width="358" height="314" viewBox="0 0 358 314" fill="none" xmlns="http://www.w3.org/2000/svg">
<path fill-rule="evenodd" clip-rule="evenodd" d="M100.688 314V190.938H257.312V314H134.25V235.688H123.062V314H100.688ZM190.188 224.5H179V235.688H167.812V246.875H179V235.688H190.188V258.062H179V269.25H190.188V258.062H201.375V235.688H190.188V224.5ZM190.188 280.438H179V291.625H190.188V280.438Z" fill="#1F1D28"/>
<path d="M89.5 190.938V179.75H67.125V168.562H55.9375V146.188H44.75V101.438H55.9375V79.0625H67.125V67.875H89.5V56.6875H111.875V45.5H123.062V34.3125H134.25V23.125H145.438V11.9375H167.812V0.75H223.75V11.9375H246.125V23.125H257.312V34.3125H268.5V45.5H279.688V67.875H290.875V112.625H302.062V123.812H313.25V168.562H302.062V179.75H290.875V190.938H89.5Z" fill="url(#paint0_linear_1505_87997)"/>
<path fill-rule="evenodd" clip-rule="evenodd" d="M78.3125 101.438V135H89.5V112.625H111.875V146.188H179V112.625H190.188V146.188H257.312V79.0625H190.188V101.438H179V79.0625H111.875V101.438H78.3125ZM201.375 90.25H223.75V135H201.375V90.25ZM145.438 90.25H123.062V135H145.438V90.25Z" fill="black"/>
<defs>
<linearGradient id="paint0_linear_1505_87997" x1="179" y1="0.75" x2="179" y2="190.938" gradientUnits="userSpaceOnUse">
<stop offset="0.233042" stop-color="white"/>
<stop offset="1" stop-color="#EBF2F3"/>
</linearGradient>
</defs>
</svg>
