<svg width="28" height="28" viewBox="0 0 28 28" fill="none" xmlns="http://www.w3.org/2000/svg">
<path d="M22.4853 22.4853C17.799 27.1716 10.201 27.1716 5.51472 22.4853C0.828427 17.799 0.828427 10.201 5.51472 5.51472C10.201 0.828427 17.799 0.828427 22.4853 5.51472C27.1716 10.201 27.1716 17.799 22.4853 22.4853Z" fill="black" fill-opacity="0.1"/>
<path d="M5.51472 22.4853C10.201 27.1716 17.799 27.1716 22.4853 22.4853C27.1716 17.799 27.1716 10.201 22.4853 5.51472M5.51472 22.4853C0.828427 17.799 0.828427 10.201 5.51472 5.51472C10.201 0.828427 17.799 0.828427 22.4853 5.51472M5.51472 22.4853L22.4853 5.51472" stroke="#222529" stroke-width="2"/>
</svg>
