<svg width="28" height="28" viewBox="0 0 28 28" fill="none" xmlns="http://www.w3.org/2000/svg">
<path d="M25 16.6067H12.4783C12.4783 16.6067 12.0769 21.8559 9.6389 22.8625H19.4615C23.0308 22.8625 24.3408 21.6273 24.5497 21.0098C25 18.9601 25 16.6067 25 16.6067Z" fill="black" fill-opacity="0.1"/>
<path d="M9.6389 22.8625H2.56395C1.70021 22.8625 1 23.5627 1 24.4264C1 25.2902 1.70021 25.9904 2.56395 25.9904H20C23 25.9904 24.0967 23.0719 24.5497 21.0098C24.3408 21.6273 23.0308 22.8625 19.4615 22.8625H9.6389Z" fill="black" fill-opacity="0.1"/>
<path d="M12.4783 16.6067V13.4788L16.6522 12.4361V4.09672C16.6522 2.94413 17.5865 2.00977 18.7391 2.00977C19.8917 2.00977 20.8261 2.94413 20.8261 4.09672V12.4361L25 13.4788V16.6067M12.4783 16.6067H25M12.4783 16.6067C12.4783 16.6067 12.0769 21.8559 9.6389 22.8625M25 16.6067C25 16.6067 25 18.9601 24.5497 21.0098M9.6389 22.8625H2.56395C1.70021 22.8625 1 23.5627 1 24.4264C1 25.2902 1.70021 25.9904 2.56395 25.9904H20C23 25.9904 24.0967 23.0719 24.5497 21.0098M9.6389 22.8625H19.4615M19.4615 22.8625C20.9895 21.8198 20.9895 19.2133 20.9895 19.2133M19.4615 22.8625C23.0308 22.8625 24.3408 21.6273 24.5497 21.0098M14.8462 22.779C15.4348 22.4018 16.6201 21.1607 16.6522 19.2133" stroke="#222529" stroke-width="2" stroke-linejoin="round"/>
</svg>
