<svg width="28" height="28" viewBox="0 0 28 28" fill="none" xmlns="http://www.w3.org/2000/svg">
<path fill-rule="evenodd" clip-rule="evenodd" d="M7 1C3.68629 1 1 3.68629 1 7V21C1 24.3137 3.68629 27 7 27H21C24.3137 27 27 24.3137 27 21V7C27 3.68629 24.3137 1 21 1H7ZM9 14C10.1046 14 11 13.1046 11 12C11 10.8954 10.1046 10 9 10C7.89543 10 7 10.8954 7 12C7 13.1046 7.89543 14 9 14ZM19 14C20.1046 14 21 13.1046 21 12C21 10.8954 20.1046 10 19 10C17.8954 10 17 10.8954 17 12C17 13.1046 17.8954 14 19 14ZM7.49888 16H20.4989C20.775 16 20.9998 16.2251 20.9916 16.5011C20.827 22.0562 17.8848 23 13.9989 23C10.1129 23 7.17076 22.0562 7.00615 16.5011C6.99797 16.2251 7.22274 16 7.49888 16ZM13.9993 19C15.9931 19 17.9868 19.4969 17.9993 20.0031C17.7911 20.1946 17.5527 20.3503 17.2866 20.4793C16.2463 20.9836 14.9627 21.0098 13.9982 21.0098C13.0337 21.0098 11.7501 20.9836 10.7098 20.4793C10.4446 20.3507 10.207 20.1957 9.99937 20.0051C10.0115 19.497 12.0054 19 13.9993 19Z" fill="url(#paint0_linear_1180:85528)"/>
<rect x="2" y="2" width="24" height="24" rx="5" stroke="#222529" stroke-width="2"/>
<path fill-rule="evenodd" clip-rule="evenodd" d="M9 14C10.1046 14 11 13.1046 11 12C11 10.8954 10.1046 10 9 10C7.89543 10 7 10.8954 7 12C7 13.1046 7.89543 14 9 14ZM19 14C20.1046 14 21 13.1046 21 12C21 10.8954 20.1046 10 19 10C17.8954 10 17 10.8954 17 12C17 13.1046 17.8954 14 19 14ZM20.5008 16H7.50076C7.22462 16 6.99985 16.2251 7.00803 16.5011C7.17264 22.0562 10.1148 23 14.0008 23C17.8867 23 20.8289 22.0562 20.9935 16.5011C21.0017 16.2251 20.7769 16 20.5008 16ZM13.9999 19C15.9937 19 17.9875 19.4969 17.9999 20.0031C17.7917 20.1946 17.5533 20.3503 17.2872 20.4793C16.2469 20.9836 14.9633 21.0098 13.9988 21.0098C13.0343 21.0098 11.7508 20.9836 10.7104 20.4793C10.4453 20.3507 10.2076 20.1957 10 20.0051C10.0121 19.497 12.006 19 13.9999 19Z" fill="#222529"/>
<defs>
<linearGradient id="paint0_linear_1180:85528" x1="1" y1="0.645735" x2="7.42043" y2="31.1245" gradientUnits="userSpaceOnUse">
<stop stop-color="#DEDDFD"/>
<stop offset="1" stop-color="#85C2FF"/>
</linearGradient>
</defs>
</svg>
