<svg width="28" height="28" viewBox="0 0 28 28" fill="none" xmlns="http://www.w3.org/2000/svg">
<rect x="2" y="2" width="24" height="24" rx="5" fill="black" fill-opacity="0.05" stroke="#222529" stroke-width="2"/>
<path fill-rule="evenodd" clip-rule="evenodd" d="M9 14C10.1046 14 11 13.1046 11 12C11 10.8954 10.1046 10 9 10C7.89543 10 7 10.8954 7 12C7 13.1046 7.89543 14 9 14ZM19 14C20.1046 14 21 13.1046 21 12C21 10.8954 20.1046 10 19 10C17.8954 10 17 10.8954 17 12C17 13.1046 17.8954 14 19 14ZM20.5008 16H7.50076C7.22462 16 6.99985 16.2251 7.00803 16.5011C7.17264 22.0562 10.1148 23 14.0008 23C17.8867 23 20.8289 22.0562 20.9935 16.5011C21.0017 16.2251 20.7769 16 20.5008 16ZM13.9999 19C15.9937 19 17.9875 19.4969 17.9999 20.0031C17.7917 20.1946 17.5533 20.3503 17.2872 20.4793C16.2469 20.9836 14.9633 21.0098 13.9988 21.0098C13.0343 21.0098 11.7508 20.9836 10.7104 20.4793C10.4453 20.3507 10.2076 20.1957 10 20.0051C10.0121 19.497 12.006 19 13.9999 19Z" fill="#222529"/>
</svg>
