<svg width="28" height="28" viewBox="0 0 28 28" fill="none" xmlns="http://www.w3.org/2000/svg">
<path d="M23 18V4.5C23 3.67157 22.3284 3 21.5 3H9V18H22H23Z" fill="black" fill-opacity="0.1"/>
<path d="M7.5 3C6.67157 3 6 3.67157 6 4.5V18H9V3H7.5Z" fill="black" fill-opacity="0.1"/>
<path d="M9 27L11 25L13 27V24V21H9V24V27Z" fill="black" fill-opacity="0.1"/>
<path d="M23 25C23.5523 25 24 24.5523 24 24C24 23.4477 23.5523 23 23 23V25ZM23 18V19C23.5523 19 24 18.5523 24 18H23ZM9 21V20C8.44772 20 8 20.4477 8 21H9ZM9 27H8C8 27.4045 8.24364 27.7691 8.61732 27.9239C8.99099 28.0787 9.42111 27.9931 9.70711 27.7071L9 27ZM11 25L11.7071 24.2929C11.3166 23.9024 10.6834 23.9024 10.2929 24.2929L11 25ZM13 27L12.2929 27.7071C12.5789 27.9931 13.009 28.0787 13.3827 27.9239C13.7564 27.7691 14 27.4045 14 27H13ZM13 21H14C14 20.4477 13.5523 20 13 20V21ZM5 4.5V18H7V4.5H5ZM22 4.5V18H24V4.5H22ZM9.70711 27.7071L11.7071 25.7071L10.2929 24.2929L8.29289 26.2929L9.70711 27.7071ZM10.2929 25.7071L12.2929 27.7071L13.7071 26.2929L11.7071 24.2929L10.2929 25.7071ZM5 18V22.5H7V18H5ZM6 19H9V17H6V19ZM7.5 4H9V2H7.5V4ZM9 4H21.5V2H9V4ZM10 18V3H8V18H10ZM9 22H22V20H9V22ZM8 21V24H10V21H8ZM8 24V27H10V24H8ZM14 27V24H12V27H14ZM14 24V21H12V24H14ZM9 23H7.5V25H9V23ZM13 20H9V22H13V20ZM9 19H22V17H9V19ZM22 19H23V17H22V19ZM23 23H22V25H23V23ZM22 23H13V25H22V23ZM21 18V24H23V18H21ZM7 4.5C7 4.22386 7.22386 4 7.5 4V2C6.11929 2 5 3.11929 5 4.5H7ZM5 22.5C5 23.8807 6.11929 25 7.5 25V23C7.22386 23 7 22.7761 7 22.5H5ZM24 4.5C24 3.11929 22.8807 2 21.5 2V4C21.7761 4 22 4.22386 22 4.5H24Z" fill="#222529"/>
</svg>
