<svg width="28" height="28" viewBox="0 0 28 28" fill="none" xmlns="http://www.w3.org/2000/svg">
<path fill-rule="evenodd" clip-rule="evenodd" d="M22.2105 11.2857V6H5.78947V11.2857C5.78947 15.1474 8.6295 17.4031 11.9474 18.0528V23.4286H11.2105C10.106 23.4286 9.21053 24.324 9.21053 25.4286V27H18.7895V25.4286C18.7895 24.324 17.894 23.4286 16.7895 23.4286H16.0526V18.0528C19.3705 17.4031 22.2105 15.1474 22.2105 11.2857Z" fill="black" fill-opacity="0.1"/>
<path d="M22.2105 11.2857C22.2105 15.1474 19.3705 17.4031 16.0526 18.0528M22.2105 11.2857V6M22.2105 11.2857H23M5.78947 11.2857C5.78947 15.1474 8.6295 17.4031 11.9474 18.0528M5.78947 11.2857V6M5.78947 11.2857H5M11.9474 18.0528V23.4286M11.9474 18.0528C13.2897 18.3157 14.7103 18.3157 16.0526 18.0528M11.9474 23.4286H16.0526M11.9474 23.4286H11.2105M16.0526 23.4286V18.0528M16.0526 23.4286H16.7895M18.7895 27H9.21053M18.7895 27H5.78947H9.21053M18.7895 27H22.2105M18.7895 27V25.4286M9.21053 27V25.4286M5.78947 3.42857V2H22.2105V3.42857M5.78947 3.42857V6M5.78947 3.42857H2M22.2105 3.42857V6M22.2105 3.42857H26M5.78947 6H22.2105M26 3.42857C26.5523 3.42857 27 3.87629 27 4.42857M26 3.42857V3.42857C26.5523 3.42857 27 3.87629 27 4.42857V4.42857M27 4.42857V7.28571M27 7.28571C27 9.49485 25.2091 11.2857 23 11.2857M27 7.28571V7.28571C27 9.49485 25.2091 11.2857 23 11.2857V11.2857M16.7895 23.4286C17.894 23.4286 18.7895 24.324 18.7895 25.4286M16.7895 23.4286V23.4286C17.894 23.4286 18.7895 24.324 18.7895 25.4286V25.4286M9.21053 25.4286C9.21053 24.324 10.106 23.4286 11.2105 23.4286M9.21053 25.4286V25.4286C9.21053 24.324 10.106 23.4286 11.2105 23.4286V23.4286M5 11.2857C2.79086 11.2857 1 9.49486 1 7.28572M5 11.2857V11.2857C2.79086 11.2857 1 9.49485 1 7.28572V7.28572M1 7.28572V4.42857M1 4.42857C1 3.87629 1.44772 3.42857 2 3.42857M1 4.42857V4.42857C1 3.87629 1.44772 3.42857 2 3.42857V3.42857" stroke="#222529" stroke-width="2"/>
</svg>
