<svg width="28" height="28" viewBox="0 0 28 28" fill="none" xmlns="http://www.w3.org/2000/svg">
<path fill-rule="evenodd" clip-rule="evenodd" d="M15.6396 1C15.8548 1 16.0459 1.13772 16.114 1.34189L16.9279 3.78366C16.9737 3.92108 17.0768 4.03188 17.2106 4.08738L18.7376 4.72086C18.8716 4.77644 19.0231 4.7711 19.1528 4.70624L21.4546 3.55532C21.6471 3.45907 21.8796 3.4968 22.0318 3.64898L24.3506 5.96775C24.5027 6.11993 24.5405 6.35242 24.4442 6.54491L23.2933 8.84671C23.2285 8.97646 23.2231 9.12799 23.2787 9.26197L23.9126 10.7894C23.9681 10.9232 24.0789 11.0263 24.2163 11.0721L26.6581 11.886C26.8623 11.9541 27 12.1452 27 12.3604V15.6396C27 15.8548 26.8623 16.0459 26.6581 16.114L24.2163 16.9279C24.0789 16.9737 23.9681 17.0768 23.9126 17.2106L23.2787 18.738C23.2231 18.872 23.2285 19.0235 23.2933 19.1533L24.4442 21.4551C24.5405 21.6476 24.5027 21.8801 24.3506 22.0322L22.0318 24.351C21.8796 24.5032 21.6471 24.5409 21.4546 24.4447L19.1528 23.2938C19.0231 23.2289 18.8716 23.2236 18.7376 23.2791L17.2106 23.9126C17.0768 23.9681 16.9737 24.0789 16.9279 24.2163L16.114 26.6581C16.0459 26.8623 15.8548 27 15.6396 27H12.3604C12.1452 27 11.9541 26.8623 11.886 26.6581L11.0722 24.2165C11.0263 24.079 10.923 23.9681 10.7891 23.9127L9.26181 23.2804C9.12791 23.225 8.97656 23.2304 8.84694 23.2952L6.54491 24.4462C6.35242 24.5424 6.11993 24.5047 5.96775 24.3525L3.64898 22.0337C3.4968 21.8816 3.45907 21.6491 3.55532 21.4566L4.70628 19.1547C4.77112 19.025 4.77648 18.8736 4.72097 18.7396L4.08735 17.2108C4.03187 17.0769 3.92104 16.9737 3.78356 16.9279L1.34189 16.114C1.13772 16.0459 1 15.8548 1 15.6396V12.3604C1 12.1452 1.13772 11.9541 1.34189 11.886L3.78376 11.0721C3.92112 11.0263 4.03189 10.9232 4.08742 10.7895L4.72074 9.26442C4.77639 9.13041 4.77108 8.97884 4.70619 8.84905L3.55532 6.54732C3.45907 6.35483 3.4968 6.12234 3.64898 5.97016L5.96775 3.65139C6.11993 3.49921 6.35242 3.46148 6.54491 3.55773L8.84648 4.70851C8.97636 4.77345 9.12806 4.77872 9.26213 4.72295L10.7897 4.08747C10.9233 4.0319 11.0263 3.9212 11.072 3.78394L11.886 1.34189C11.9541 1.13772 12.1452 1 12.3604 1H15.6396ZM14 17.7143C16.0513 17.7143 17.7143 16.0513 17.7143 14C17.7143 11.9487 16.0513 10.2857 14 10.2857C11.9487 10.2857 10.2857 11.9487 10.2857 14C10.2857 16.0513 11.9487 17.7143 14 17.7143Z" fill="black" fill-opacity="0.05" stroke="#222529" stroke-width="2"/>
</svg>
