<svg width="28" height="29" viewBox="0 0 28 29" fill="none" xmlns="http://www.w3.org/2000/svg">
<path fill-rule="evenodd" clip-rule="evenodd" d="M11 18.5V13.5V12L16.7929 6.20711C17.1834 5.81658 17.8166 5.81658 18.2071 6.20711L22.2929 10.2929C22.6834 10.6834 22.6834 11.3166 22.2929 11.7071L17 17H20.5H24.5C25.0523 17 25.5 17.4477 25.5 18V24C25.5 24.5523 25.0523 25 24.5 25H20.5H15.6945H11V23V18.5Z" fill="black" fill-opacity="0.1"/>
<path d="M11 18.5H3M11 18.5V13.5M11 18.5V23M3 18.5V25.5H11V25M3 18.5V13.5M3 13.5H11M3 13.5V8.5M11 13.5V12M11 8.5H3M11 8.5V12M11 8.5V4.5M3 8.5V4.5M11 12L16.7929 6.20711M11 23V25M11 23L15.6945 18.3055M17 17H20.5M17 17L15.6945 18.3055M17 17L22.2929 11.7071M11 25H15.6945M20.5 17V25M20.5 17H24.5M20.5 25H15.6945M20.5 25H24.5M15.6945 18.3055V25M4 3.5H10M4 3.5C3.44772 3.5 3 3.94772 3 4.5M4 3.5V3.5C3.44772 3.5 3 3.94772 3 4.5V4.5M10 3.5C10.5523 3.5 11 3.94772 11 4.5M10 3.5V3.5C10.5523 3.5 11 3.94772 11 4.5V4.5M16.7929 6.20711C17.1834 5.81658 17.8166 5.81658 18.2071 6.20711M16.7929 6.20711V6.20711C17.1834 5.81658 17.8166 5.81658 18.2071 6.20711V6.20711M18.2071 6.20711L22.2929 10.2929M22.2929 10.2929C22.6834 10.6834 22.6834 11.3166 22.2929 11.7071M22.2929 10.2929V10.2929C22.6834 10.6834 22.6834 11.3166 22.2929 11.7071V11.7071M24.5 17C25.0523 17 25.5 17.4477 25.5 18M24.5 17V17C25.0523 17 25.5 17.4477 25.5 18V18M25.5 18V24M25.5 24C25.5 24.5523 25.0523 25 24.5 25M25.5 24V24C25.5 24.5523 25.0523 25 24.5 25V25" stroke="#222529" stroke-width="2"/>
<circle cx="7" cy="22" r="1.5" fill="#222529"/>
</svg>
