<svg width="28" height="28" viewBox="0 0 28 28" fill="none" xmlns="http://www.w3.org/2000/svg">
<path d="M26.5019 23.3632C26.5019 24.697 25.4722 25.7783 24.2019 25.7783C22.9316 25.7783 21.9019 24.697 21.9019 23.3632C21.9019 22.0294 23.4352 20.1432 24.2019 19.3381C25.3519 20.5457 26.5019 22.0294 26.5019 23.3632Z" fill="black" fill-opacity="0.1" stroke="#222529" stroke-width="2" stroke-linecap="round"/>
<path fill-rule="evenodd" clip-rule="evenodd" d="M13.7014 4.17667L16.5959 7.07109L24.298 14.7732L13.5017 25.5695C12.7143 26.3569 11.4355 26.3496 10.6572 25.5532L2.89315 17.6094C2.12296 16.8214 2.13525 15.5589 2.92063 14.786L4.65579 13.0784L7.58645 15.9927L12.4772 11.102L11.0166 9.64143C10.5201 9.1449 10.1485 8.54678 9.92204 7.89594L13.7014 4.17667Z" fill="black" fill-opacity="0.1"/>
<path d="M13.7014 4.17667L14.4085 3.46956C14.0202 3.08125 13.3914 3.07873 13 3.46392L13.7014 4.17667ZM24.298 14.7732L25.0051 15.4803C25.3956 15.0898 25.3956 14.4566 25.0051 14.0661L24.298 14.7732ZM16.6082 4.45806L17.6082 4.46278V4.45801L16.6082 4.45806ZM16.5829 12.0526L16.5829 13.0526H16.5829V12.0526ZM17.7356 13.0526C18.2879 13.0526 18.7356 12.6049 18.7356 12.0526C18.7356 11.5004 18.2879 11.0526 17.7356 11.0526V13.0526ZM15.4301 11.0526C14.8779 11.0526 14.4301 11.5004 14.4301 12.0526C14.4301 12.6049 14.8779 13.0526 15.4301 13.0526L15.4301 11.0526ZM9.66606 6.38121L8.66606 6.36789L8.66606 6.38127L9.66606 6.38121ZM9.69166 4.45845L10.6917 4.47177L10.6917 4.45839L9.69166 4.45845ZM11.0166 9.64143L11.7237 8.93432L11.0166 9.64143ZM12.4772 11.102L13.1843 11.8091C13.5748 11.4186 13.5748 10.7854 13.1843 10.3949L12.4772 11.102ZM7.58645 15.9927L6.88132 16.7018C7.27216 17.0905 7.9038 17.0896 8.29355 16.6998L7.58645 15.9927ZM2.89315 17.6094L2.178 18.3084L2.89315 17.6094ZM13.5017 25.5695L12.7946 24.8624L13.5017 25.5695ZM10.6572 25.5532L9.94201 26.2522L10.6572 25.5532ZM23.5909 14.0661L12.7946 24.8624L14.2088 26.2766L25.0051 15.4803L23.5909 14.0661ZM11.3723 24.8543L3.6083 16.9104L2.178 18.3084L9.94201 26.2522L11.3723 24.8543ZM16.5829 13.0526H17.7356V11.0526H16.5829V13.0526ZM16.5829 11.0526L15.4301 11.0526L15.4301 13.0526L16.5829 13.0526L16.5829 11.0526ZM10.666 6.39453L10.6916 4.47177L8.69175 4.44513L8.66615 6.36789L10.666 6.39453ZM10.3095 10.3485L11.7701 11.8091L13.1843 10.3949L11.7237 8.93432L10.3095 10.3485ZM11.7701 10.3949L6.87934 15.2856L8.29355 16.6998L13.1843 11.8091L11.7701 10.3949ZM13.1499 2C14.5075 2 15.6081 3.10051 15.6082 4.45812L17.6082 4.45801C17.608 1.99588 15.6121 0 13.1499 0V2ZM13.1499 0C10.6876 0 8.69153 1.99618 8.69167 4.45851L10.6917 4.45839C10.6916 3.10068 11.7922 2 13.1499 2V0ZM17.303 6.36399L14.4085 3.46956L12.9943 4.88378L15.8887 7.7782L17.303 6.36399ZM13 3.46392L9.22063 7.18318L10.6235 8.60869L14.4028 4.88942L13 3.46392ZM25.0051 14.0661L17.303 6.36399L15.8887 7.7782L23.5909 15.4803L25.0051 14.0661ZM8.66606 6.38127C8.66609 7.01477 8.77328 7.63731 8.97756 8.22451L10.8665 7.56736C10.735 7.18945 10.6661 6.7889 10.6661 6.38115L8.66606 6.38127ZM8.97756 8.22451C9.25307 9.01644 9.70526 9.74431 10.3095 10.3485L11.7237 8.93432C11.3349 8.54548 11.0439 8.07713 10.8665 7.56736L8.97756 8.22451ZM15.6082 4.45335L15.5959 7.06638L17.5958 7.07581L17.6082 4.46278L15.6082 4.45335ZM15.5959 7.06849L15.5829 12.05L17.5829 12.0552L17.5958 7.0737L15.5959 7.06849ZM9.22063 7.18318L3.95438 12.3657L5.35721 13.7912L10.6235 8.60869L9.22063 7.18318ZM3.95438 12.3657L2.21921 14.0732L3.62204 15.4987L5.35721 13.7912L3.95438 12.3657ZM8.29157 15.2836L5.36092 12.3693L3.95067 13.7875L6.88132 16.7018L8.29157 15.2836ZM3.6083 16.9104C3.22321 16.5164 3.22935 15.8852 3.62204 15.4987L2.21921 14.0732C1.04115 15.2325 1.02272 17.1263 2.178 18.3084L3.6083 16.9104ZM12.7946 24.8624C12.4009 25.2561 11.7615 25.2524 11.3723 24.8543L9.94201 26.2522C11.1095 27.4467 13.0277 27.4577 14.2088 26.2766L12.7946 24.8624Z" fill="#222529"/>
</svg>
