<svg width="28" height="28" viewBox="0 0 28 28" fill="none" xmlns="http://www.w3.org/2000/svg">
<path fill-rule="evenodd" clip-rule="evenodd" d="M18 25L14 18.5L10 25H18ZM19.0267 10.0486C17.2148 12.9112 14.7714 14 14.7714 14H14H13.2286C13.2286 14 11.0117 12.6829 9.23529 10.0486H19.0267Z" fill="black" fill-opacity="0.1"/>
<path d="M5 3H7.05714M23 3H20.9429M20.9429 3H7.05714M20.9429 3C20.9429 6.05895 20.0944 8.36176 19.0267 10.0486M14.7714 14C14.7714 14 20.9429 16.75 20.9429 25M14.7714 14C14.7714 14 17.2148 12.9112 19.0267 10.0486M14.7714 14H14M20.9429 25H23M20.9429 25H18M5 25H7.05714M7.05714 25C7.05714 16.75 13.2286 14 13.2286 14M7.05714 25H10M13.2286 14C13.2286 14 11.0117 12.6829 9.23529 10.0486M13.2286 14H14M7.05714 3C7.05714 5.93813 8.0478 8.28767 9.23529 10.0486M9.23529 10.0486H19.0267M10 25L14 18.5M10 25H18M14 18.5L18 25M14 18.5L14 14" stroke="#222529" stroke-width="2"/>
</svg>
