<svg width="33" height="32" viewBox="0 0 33 32" fill="none" xmlns="http://www.w3.org/2000/svg">
<path d="M10.916 22.5246C10.2328 22.9191 9.13431 22.9999 8.5 21.9999C7.86569 20.9999 8.27676 19.7925 8.96002 19.398L12.2591 17.4933C12.2591 17.4933 13.9814 16.6018 14.8188 17.9999C15.6563 19.398 14.0651 20.7153 14.0651 20.7153L10.916 22.5246Z" fill="white"/>
<path d="M12.2591 17.4933C12.2591 17.4933 12.7048 16.4412 12.2591 15.6791C11.8134 14.917 10.6576 14.6769 9.9743 15.0713L8.73715 15.7856L7.5 16.4999C6.81674 16.8944 6.44502 17.7955 6.91033 18.6661C7.37564 19.5366 8.27676 19.7925 8.96002 19.398L12.2591 17.4933Z" fill="white"/>
<path d="M15.4226 26.5208C16.1059 26.1263 16.2729 25.3299 15.9455 24.5694C15.6181 23.8089 14.8188 23.5704 14.8188 23.5704L12.3446 24.9989C11.6613 25.3934 11.4272 26.267 11.8217 26.9503C12.2162 27.6336 13.0898 27.8677 13.7731 27.4732L15.0102 26.7589L15.4226 26.5208Z" fill="white"/>
<path d="M16.719 12.5761C16.8483 11.817 17.9563 9.97487 18.5024 9.23306C18.8369 8.77879 19.2189 8.35748 19.7819 8.43707L17.4752 4.44171C16.6862 3.07519 14.9389 2.60699 13.5724 3.39595L12.782 3.85229C13.0449 4.30779 12.8889 4.89024 12.4334 5.15323L9.13431 7.05794C8.67881 7.32093 8.09635 7.16486 7.83337 6.70936L7.0086 7.18554C5.64209 7.97449 5.17388 9.72185 5.96284 11.0884L8.73715 15.7856L9.9743 15.0713C10.6576 14.6769 11.8134 14.917 12.2591 15.6791C12.7048 16.4412 12.2591 17.4933 12.2591 17.4933C12.2591 17.4933 13.9814 16.6018 14.8188 17.9999C15.6563 19.398 14.0651 20.7153 14.0651 20.7153C14.0651 20.7153 14.8188 20.2863 15.4226 21.5905C16.0264 22.8947 14.8188 23.5704 14.8188 23.5704C14.8188 23.5704 15.6181 23.8089 15.9455 24.5694C16.2729 25.3299 16.1059 26.1263 15.4226 26.5208L15.0102 26.7589L15.4864 27.5837C16.2754 28.9502 18.0227 29.4184 19.3892 28.6294L25.953 24.8399C27.3195 24.0509 27.7877 22.3035 26.9988 20.937L25.8083 18.8751L22.299 12.7968L21.9222 12.7193C21.1424 12.5589 20.3727 13.0341 20.1666 13.8031C19.9604 14.5727 19.1901 15.0481 18.4098 14.8874C17.5293 14.7062 16.5897 13.3352 16.719 12.5761Z" fill="white"/>
<path d="M18.5024 9.23306C17.9563 9.97487 16.8483 11.817 16.719 12.5761C16.5897 13.3352 17.5293 14.7062 18.4098 14.8874C19.1901 15.0481 19.9604 14.5727 20.1666 13.8031C20.3727 13.0341 21.1424 12.5589 21.9222 12.7193L22.299 12.7968L25.8083 18.8751L26.1424 11.9561C26.2135 10.4818 25.15 9.19601 23.6886 8.98939L19.7819 8.43707C19.2189 8.35748 18.8369 8.77879 18.5024 9.23306Z" fill="white"/>
<path d="M14.8188 23.5704C14.8188 23.5704 16.0264 22.8947 15.4226 21.5905C14.8188 20.2863 14.0651 20.7153 14.0651 20.7153L10.916 22.5246C10.2328 22.9191 9.99866 23.7927 10.3931 24.476C10.7876 25.1593 11.6613 25.3934 12.3446 24.9989L14.8188 23.5704Z" fill="white"/>
<path d="M22.299 12.7968L21.9222 12.7193C21.1424 12.5589 20.3727 13.0341 20.1666 13.8031C19.9604 14.5727 19.1901 15.0481 18.4098 14.8874C17.5293 14.7062 16.5897 13.3352 16.719 12.5761C16.8483 11.817 17.9563 9.97487 18.5024 9.23306C18.8369 8.77879 19.2189 8.35748 19.7819 8.43707M22.299 12.7968L24.2228 13.1924M22.299 12.7968L25.8083 18.8751M22.299 12.7968L22.237 12.6894M19.7819 8.43707L23.6886 8.98939C25.15 9.19601 26.2135 10.4818 26.1424 11.9561L25.8083 18.8751M19.7819 8.43707L17.4752 4.44171C16.6862 3.07519 14.9389 2.60699 13.5724 3.39595L12.782 3.85229M25.8083 18.8751L26.9988 20.937C27.7877 22.3035 27.3195 24.0509 25.953 24.8399L19.3892 28.6294C18.0227 29.4184 16.2754 28.9502 15.4864 27.5837L15.0102 26.7589M7.83337 6.70936L7.0086 7.18554C5.64209 7.97449 5.17388 9.72185 5.96284 11.0884L8.73715 15.7856M7.83337 6.70936L12.782 3.85229M7.83337 6.70936C8.09635 7.16486 8.67881 7.32093 9.13431 7.05794L12.4334 5.15323C12.8889 4.89024 13.0449 4.30779 12.782 3.85229M12.2591 17.4933C12.2591 17.4933 12.7048 16.4412 12.2591 15.6791C11.8134 14.917 10.6576 14.6769 9.9743 15.0713L8.73715 15.7856M12.2591 17.4933C12.2591 17.4933 13.9814 16.6018 14.8188 17.9999C15.6563 19.398 14.0651 20.7153 14.0651 20.7153M12.2591 17.4933L8.96002 19.398M8.96002 19.398C8.27676 19.7925 7.37564 19.5366 6.91033 18.6661C6.44502 17.7955 6.81674 16.8944 7.5 16.4999L8.73715 15.7856M8.96002 19.398C8.27676 19.7925 7.86569 20.9999 8.5 21.9999C9.13431 22.9999 10.2328 22.9191 10.916 22.5246M14.0651 20.7153C14.0651 20.7153 14.8188 20.2863 15.4226 21.5905C16.0264 22.8947 14.8188 23.5704 14.8188 23.5704M14.0651 20.7153L10.916 22.5246M10.916 22.5246C10.2328 22.9191 9.99866 23.7927 10.3931 24.476C10.7876 25.1593 11.6613 25.3934 12.3446 24.9989M14.8188 23.5704C14.8188 23.5704 15.6181 23.8089 15.9455 24.5694C16.2729 25.3299 16.1059 26.1263 15.4226 26.5208L15.0102 26.7589M14.8188 23.5704L12.3446 24.9989M12.3446 24.9989C11.6613 25.3934 11.4272 26.267 11.8217 26.9503C12.2162 27.6336 13.0898 27.8677 13.7731 27.4732L15.0102 26.7589M18.871 25.6756L23.8196 22.8185" stroke="#222529" stroke-width="2"/>
</svg>
