<svg width="28" height="28" viewBox="0 0 28 28" fill="none" xmlns="http://www.w3.org/2000/svg">
<path d="M21 3C22.6569 3 24 4.34315 24 6V24C24 25.6569 22.6569 27 21 27H7C5.34315 27 4 25.6569 4 24V6C4 4.34315 5.34315 3 7 3H10C10.5523 3 11 3.44772 11 4C11 4.55228 11.4477 5 12 5H16C16.5523 5 17 4.55228 17 4C17 3.44772 17.4477 3 18 3H21Z" fill="black" fill-opacity="0.1" stroke="#222529" stroke-width="2"/>
<path fill-rule="evenodd" clip-rule="evenodd" d="M13 11C13 11.5523 12.5523 12 12 12C11.4477 12 11 11.5523 11 11C11 10.4477 11.4477 10 12 10C12.5523 10 13 10.4477 13 11ZM17 11C17 11.5523 16.5523 12 16 12C15.4477 12 15 11.5523 15 11C15 10.4477 15.4477 10 16 10C16.5523 10 17 10.4477 17 11ZM12.65 13H15.35C15.4328 13 15.5005 13.0676 15.4961 13.1503C15.4247 14.5 14.3862 14.5 14 14.5C13.6138 14.5 12.5753 14.5 12.5039 13.1503C12.4995 13.0676 12.5672 13 12.65 13Z" fill="#222529"/>
<rect x="7" y="22" width="10" height="2" fill="#222529"/>
<rect x="7" y="18" width="14" height="2" fill="#222529"/>
<rect x="11" y="1" width="6" height="4" stroke="#222529" stroke-width="2" stroke-linejoin="round"/>
</svg>
