<svg width="28" height="28" viewBox="0 0 28 28" fill="none" xmlns="http://www.w3.org/2000/svg">
<g clip-path="url(#clip0_1278_87205)">
<path d="M24.4953 9.80256C23.8969 10.6583 17.315 9.91814 17.315 9.91814C17.315 9.91814 20.3068 15.7927 19.7084 16.6484L18.8109 17.932L17.9134 19.2156C17.315 20.0713 10.7704 19.2777 10.7704 19.2777C10.7704 19.2777 13.7249 25.2057 13.1265 26.0614L3.59013 19.3933C4.18848 18.5375 10.7704 19.2777 10.7704 19.2777C10.7704 19.2777 7.77863 13.4031 8.37699 12.5474L9.27453 11.2638L10.1721 9.98023C10.7704 9.1245 17.315 9.91814 17.315 9.91814C17.315 9.91814 14.3606 3.99011 14.9589 3.13438L24.4953 9.80256Z" fill="black" fill-opacity="0.1"/>
<path d="M14.9589 3.13438L16.1556 1.42292M14.9589 3.13438L24.4953 9.80256M14.9589 3.13438C14.3606 3.99011 17.315 9.91814 17.315 9.91814M17.9134 19.2156L18.8109 17.932L19.7084 16.6484M17.9134 19.2156L8.37699 12.5474M17.9134 19.2156C17.315 20.0713 10.7704 19.2777 10.7704 19.2777M3.59013 19.3933L2.72999 20.6234L1.79505 21.9605M3.59013 19.3933L13.1265 26.0614M3.59013 19.3933C4.18848 18.5375 10.7704 19.2777 10.7704 19.2777M1.79505 21.9605C1.1967 22.8162 2.86089 26.5281 2.86089 26.5281M1.79505 21.9605L9.04151 27.0274M10.7704 19.2777C10.7704 19.2777 7.77863 13.4031 8.37699 12.5474M10.7704 19.2777C10.7704 19.2777 13.7249 25.2057 13.1265 26.0614M8.37699 12.5474L9.27453 11.2638L10.1721 9.98023M17.315 9.91814C17.315 9.91814 23.8969 10.6583 24.4953 9.80256M17.315 9.91814C17.315 9.91814 20.3068 15.7927 19.7084 16.6484M17.315 9.91814C17.315 9.91814 10.7704 9.1245 10.1721 9.98023M24.4953 9.80256L25.3554 8.57245L25.3928 8.51897C25.3928 8.51897 25.9399 7.73665 26.2904 7.23537M26.2904 7.23537C26.8887 6.37964 25.2245 2.66773 25.2245 2.66773M26.2904 7.23537C23.5536 5.32174 19.2825 2.33522 19.2825 2.33522M13.1265 26.0614L12.5 27.0274M10.1721 9.98023L19.7084 16.6484" stroke="#222529" stroke-width="2" stroke-linecap="round" stroke-linejoin="round"/>
</g>
<defs>
<clipPath id="clip0_1278_87205">
<rect width="28" height="28" fill="white"/>
</clipPath>
</defs>
</svg>
