<svg width="28" height="28" viewBox="0 0 28 28" fill="none" xmlns="http://www.w3.org/2000/svg">
<path fill-rule="evenodd" clip-rule="evenodd" d="M1 3.15141C1 1.39155 2.262 0 3.91102 0C4.67388 0 5.25611 0.345465 5.61713 0.55968C5.6509 0.579718 5.68274 0.598607 5.71261 0.615958C6.08808 0.834086 6.35175 0.961268 6.75424 0.961268C7.00396 0.961268 7.27732 0.862713 7.85359 0.65455C8.36604 0.469442 9.0579 0.228873 9.87712 0.228873C10.6913 0.228873 11.2835 0.468098 11.7291 0.648077L11.7773 0.667525C12.2149 0.843839 13.529 0.961268 14 0.961268C14.471 0.961268 15.7851 0.843839 16.2227 0.667525L16.2709 0.648077C16.7165 0.468098 17.3087 0.228873 18.1229 0.228873C18.9421 0.228873 19.634 0.469442 20.1464 0.65455C20.7227 0.862713 20.996 0.961268 21.2458 0.961268C21.6482 0.961268 21.9119 0.834086 22.2874 0.615957C22.3172 0.598621 22.3491 0.579699 22.3829 0.559681C22.7439 0.345466 23.3261 0 24.089 0C25.738 0 27 1.39155 27 3.15141C27 4.20046 26.5911 4.88211 26.2818 5.36309C25.9608 5.86224 25.8814 5.99485 25.8814 6.21831C25.8814 6.69521 26.0213 7.14037 26.2264 7.75633L26.2421 7.80371C26.4313 8.37124 26.6737 9.0987 26.6737 9.92606C26.6737 10.867 26.443 11.5715 26.2514 12.1567L26.2281 12.2277C26.0361 12.8157 25.8814 13.3195 25.8814 14.0458C25.8814 14.7682 26.0343 15.2468 26.2245 15.8071L26.2472 15.874C26.4402 16.4412 26.6737 17.1272 26.6737 18.0739C26.6737 18.9013 26.4313 19.6288 26.2421 20.1963L26.2264 20.2437C26.0213 20.8596 25.8814 21.3048 25.8814 21.7817C25.8814 22.0051 25.9608 22.1378 26.2818 22.6369C26.5911 23.1179 27 23.7995 27 24.8486C27 26.6085 25.738 28 24.089 28C23.3261 28 22.7439 27.6545 22.3829 27.4403C22.3576 27.4253 22.3335 27.411 22.3104 27.3975C22.3026 27.3929 22.2949 27.3884 22.2874 27.384C21.9119 27.1659 21.6482 27.0387 21.2458 27.0387C20.996 27.0387 20.7227 27.1373 20.1464 27.3454C19.634 27.5306 18.9421 27.7711 18.1229 27.7711C17.3088 27.7711 16.7165 27.5319 16.2709 27.3519L16.2227 27.3325C15.7851 27.1562 14.471 27.0387 14 27.0387C13.529 27.0387 12.2149 27.1562 11.7773 27.3325L11.7291 27.3519C11.2835 27.5319 10.6912 27.7711 9.87712 27.7711C9.0579 27.7711 8.36604 27.5306 7.85359 27.3454C7.27731 27.1373 7.00396 27.0387 6.75424 27.0387C6.35175 27.0387 6.08808 27.1659 5.71261 27.384C5.68274 27.4014 5.6509 27.4203 5.61713 27.4403C5.2561 27.6545 4.67388 28 3.91102 28C2.262 28 1 26.6085 1 24.8486C1 23.7995 1.40892 23.1179 1.71824 22.6369C2.03925 22.1378 2.11864 22.0051 2.11864 21.7817C2.11864 21.3048 1.9787 20.8596 1.77365 20.2437L1.75786 20.1963C1.56872 19.6288 1.32627 18.9013 1.32627 18.0739C1.32627 17.1272 1.55976 16.4411 1.75278 15.874L1.77552 15.8071C1.96568 15.2468 2.11864 14.7682 2.11864 14.0458C2.11864 13.3195 1.96391 12.8157 1.77187 12.2277L1.74862 12.1567C1.55698 11.5715 1.32627 10.867 1.32627 9.92606C1.32627 9.0987 1.56872 8.37125 1.75786 7.80372L1.77365 7.75633C1.9787 7.14037 2.11864 6.69521 2.11864 6.21831C2.11864 5.99485 2.03925 5.86224 1.71824 5.36309C1.40892 4.88211 1 4.20046 1 3.15141ZM6 7C6 5.89543 6.89543 5 8 5H20C21.1046 5 22 5.89543 22 7V21C22 22.1046 21.1046 23 20 23H8C6.89543 23 6 22.1046 6 21V7Z" fill="url(#paint0_linear_1180:85489)"/>
<path fill-rule="evenodd" clip-rule="evenodd" d="M20 7H8V21H20V7ZM12 14C12.5523 14 13 13.5523 13 13C13 12.4477 12.5523 12 12 12C11.4477 12 11 12.4477 11 13C11 13.5523 11.4477 14 12 14ZM16 14C16.5523 14 17 13.5523 17 13C17 12.4477 16.5523 12 16 12C15.4477 12 15 12.4477 15 13C15 13.5523 15.4477 14 16 14ZM15.35 15H12.65C12.5672 15 12.4995 15.0676 12.5039 15.1503C12.5753 16.5 13.6138 16.5 14 16.5C14.3862 16.5 15.4247 16.5 15.4961 15.1503C15.5005 15.0676 15.4328 15 15.35 15Z" fill="url(#paint1_linear_1180:85489)"/>
<path fill-rule="evenodd" clip-rule="evenodd" d="M14 1.96127C12.6483 1.96127 11.1356 1.22887 9.87712 1.22887C8.61864 1.22887 7.68644 1.96127 6.75424 1.96127C5.40254 1.96127 4.93644 1 3.91102 1C2.88559 1 2 1.86972 2 3.15141C2 4.66197 3.11864 5.07394 3.11864 6.21831C3.11864 7.54577 2.32627 8.59859 2.32627 9.92606C2.32627 11.5282 3.11864 12.2606 3.11864 14.0458C3.11864 15.831 2.32627 16.4718 2.32627 18.0739C2.32627 19.4014 3.11864 20.4542 3.11864 21.7817C3.11864 22.9261 2 23.338 2 24.8486C2 26.1303 2.88559 27 3.91102 27C4.93644 27 5.40254 26.0387 6.75424 26.0387C7.68644 26.0387 8.61864 26.7711 9.87712 26.7711C11.1356 26.7711 12.6483 26.0387 14 26.0387C15.3517 26.0387 16.8644 26.7711 18.1229 26.7711C19.3814 26.7711 20.3136 26.0387 21.2458 26.0387C22.5975 26.0387 23.0636 27 24.089 27C25.1144 27 26 26.1303 26 24.8486C26 23.338 24.8814 22.9261 24.8814 21.7817C24.8814 20.4542 25.6737 19.4014 25.6737 18.0739C25.6737 16.4718 24.8814 15.831 24.8814 14.0458C24.8814 12.2606 25.6737 11.5282 25.6737 9.92606C25.6737 8.59859 24.8814 7.54577 24.8814 6.21831C24.8814 5.07394 26 4.66197 26 3.15141C26 1.86972 25.1144 1 24.089 1C23.0636 1 22.5975 1.96127 21.2458 1.96127C20.3136 1.96127 19.3814 1.22887 18.1229 1.22887C16.8644 1.22887 15.3517 1.96127 14 1.96127ZM7 7C7 6.44772 7.44772 6 8 6H20C20.5523 6 21 6.44772 21 7V18V21C21 21.5523 20.5523 22 20 22H8C7.44772 22 7 21.5523 7 21V18V7Z" stroke="#222529" stroke-width="2"/>
<path fill-rule="evenodd" clip-rule="evenodd" d="M13 13C13 13.5523 12.5523 14 12 14C11.4477 14 11 13.5523 11 13C11 12.4477 11.4477 12 12 12C12.5523 12 13 12.4477 13 13ZM17 13C17 13.5523 16.5523 14 16 14C15.4477 14 15 13.5523 15 13C15 12.4477 15.4477 12 16 12C16.5523 12 17 12.4477 17 13ZM12.65 15H15.35C15.4328 15 15.5005 15.0676 15.4961 15.1503C15.4247 16.5 14.3862 16.5 14 16.5C13.6138 16.5 12.5753 16.5 12.5039 15.1503C12.4995 15.0676 12.5672 15 12.65 15Z" fill="#222529"/>
<defs>
<linearGradient id="paint0_linear_1180:85489" x1="4.9" y1="6.34193e-08" x2="25.7064" y2="25.9067" gradientUnits="userSpaceOnUse">
<stop stop-color="#E9FAA4"/>
<stop offset="1" stop-color="#FDE281"/>
</linearGradient>
<linearGradient id="paint1_linear_1180:85489" x1="9.8" y1="7" x2="20.3518" y2="19.1278" gradientUnits="userSpaceOnUse">
<stop stop-color="#E9FAA4"/>
<stop offset="1" stop-color="#FDE281"/>
</linearGradient>
</defs>
</svg>
