<svg width="28" height="28" viewBox="0 0 28 28" fill="none" xmlns="http://www.w3.org/2000/svg">
<path fill-rule="evenodd" clip-rule="evenodd" d="M23 12C23 18.5 16.5 25 14 25C11.5 25 5 18.5 5 12C5 7.02944 9.02944 3 14 3C18.9706 3 23 7.02944 23 12ZM8.92708 15.2194C9.9912 16.2835 11.4289 16.5711 12.1383 15.8617C12.8478 15.1522 12.5602 13.7145 11.4961 12.6504C10.432 11.5863 8.99424 11.2987 8.28483 12.0081C7.57542 12.7176 7.86296 14.1553 8.92708 15.2194ZM19.1267 15.2375C18.0527 16.3115 16.6017 16.6017 15.8857 15.8857C15.1698 15.1698 15.46 13.7187 16.5339 12.6448C17.6079 11.5708 19.0589 11.2806 19.7749 11.9966C20.4909 12.7126 20.2007 14.1636 19.1267 15.2375Z" fill="black" fill-opacity="0.1"/>
<path d="M12.5 20.5H15.5M12.1383 15.8617C11.4289 16.5711 9.9912 16.2835 8.92708 15.2194C7.86296 14.1553 7.57542 12.7176 8.28483 12.0081C8.99424 11.2987 10.432 11.5863 11.4961 12.6504C12.5602 13.7145 12.8478 15.1522 12.1383 15.8617ZM15.8857 15.8857C16.6017 16.6017 18.0527 16.3115 19.1267 15.2375C20.2007 14.1636 20.4909 12.7126 19.7749 11.9966C19.0589 11.2806 17.6079 11.5708 16.5339 12.6448C15.46 13.7187 15.1698 15.1698 15.8857 15.8857ZM23 12C23 18.5 16.5 25 14 25C11.5 25 5 18.5 5 12C5 7.02944 9.02944 3 14 3C18.9706 3 23 7.02944 23 12Z" stroke="#222529" stroke-width="2" stroke-linecap="round" stroke-linejoin="round"/>
</svg>
