<svg width="28" height="28" viewBox="0 0 28 28" fill="none" xmlns="http://www.w3.org/2000/svg">
<path d="M5 5H12V23H5V5Z" fill="black" fill-opacity="0.1"/>
<path d="M16 5H23V23H16V5Z" fill="black" fill-opacity="0.1"/>
<path d="M5 5V4C4.44772 4 4 4.44772 4 5H5ZM12 5H13C13 4.44772 12.5523 4 12 4V5ZM12 23V24C12.5523 24 13 23.5523 13 23H12ZM5 23H4C4 23.5523 4.44772 24 5 24V23ZM16 5V4C15.4477 4 15 4.44772 15 5H16ZM23 5H24C24 4.44772 23.5523 4 23 4V5ZM23 23V24C23.5523 24 24 23.5523 24 23H23ZM16 23H15C15 23.5523 15.4477 24 16 24V23ZM5 6H12V4H5V6ZM11 5V23H13V5H11ZM12 22H5V24H12V22ZM6 23V5H4V23H6ZM16 6H23V4H16V6ZM22 5V23H24V5H22ZM23 22H16V24H23V22ZM17 23V5H15V23H17Z" fill="#222529"/>
</svg>
