<svg width="44" height="28" viewBox="0 0 44 28" fill="none" xmlns="http://www.w3.org/2000/svg">
<path d="M28.2138 2.49121C28.2138 2.49121 27.0579 3.18553 20.3344 7.44478C18.8673 8.37416 17.9063 9.60561 17.3759 10.9631H25.3529C27.5361 10.9631 27.9102 14.5757 25.3529 14.6416H19.3833C21.815 14.6416 21.6903 18.577 19.1963 18.6429H18.3857C19.5904 18.6429 20.0758 19.5615 19.9633 20.4887C21.2643 21.605 22.9119 22.3077 24.782 22.3077H32.3476C34.2098 22.3077 34.51 18.8508 32.4077 18.8508H33.1282C35.4697 18.8508 35.9501 15.2704 33.6085 15.2704H34.389C36.7906 15.2074 36.9107 11.4432 34.5691 11.4432H41.2855C43.7481 11.3801 43.3878 7.92453 41.2855 7.92453H26.8229L30.4608 5.54238C31.5906 4.7775 31.2154 0.587657 28.2138 2.49121Z" fill="black" fill-opacity="0.1"/>
<path d="M34.5691 11.4432H41.2855C43.7481 11.3801 43.3878 7.92453 41.2855 7.92453H26.8229L30.4608 5.54238C31.5906 4.7775 31.2154 0.587657 28.2138 2.49121C28.2138 2.49121 27.0579 3.18553 20.3344 7.44478C18.8672 8.37416 17.9063 9.60561 17.3759 10.9631M34.5691 11.4432H30.1852M34.5691 11.4432C36.9107 11.4432 36.7906 15.2074 34.389 15.2704H33.6085M33.6085 15.2704H30.1852M33.6085 15.2704C35.9501 15.2704 35.4697 18.8508 33.1282 18.8508H32.4077M32.4077 18.8508H30.1852M32.4077 18.8508C34.51 18.8508 34.2098 22.3077 32.3476 22.3077H24.782C22.9119 22.3077 21.2643 21.605 19.9633 20.4887M19.3833 14.6416H25.3529C27.9102 14.5757 27.5361 10.9631 25.3529 10.9631H17.3759M19.3833 14.6416H14.8308M19.3833 14.6416C21.815 14.6416 21.6903 18.577 19.1963 18.6429H18.3857M18.3857 18.6429H14.8308M18.3857 18.6429C19.5904 18.6429 20.0758 19.5615 19.9633 20.4887M17.1387 22.386H17.8869C19.1139 22.386 19.8488 21.4329 19.9633 20.4887M17.1387 22.386H14.8308M17.1387 22.386C19.322 22.386 19.0102 26 17.0764 26H9.21974C1.67606 26 -2.38114 14.9144 4.60106 10.4615C11.5833 6.00865 12.7836 5.28277 12.7836 5.28277C15.9006 3.29269 16.2902 7.67298 15.117 8.47263L11.3392 10.9631H17.3759" stroke="#222529" stroke-width="2" stroke-linecap="round" stroke-linejoin="round"/>
</svg>
