<svg width="33" height="32" viewBox="0 0 33 32" fill="none" xmlns="http://www.w3.org/2000/svg">
<g clip-path="url(#clip0_1186_85428)">
<path d="M13.2234 3.50795C13.2234 3.50795 12.0293 4.22595 5.08269 8.6304C-1.86389 13.0348 2.17261 24 9.6778 24H17.4944C19.4183 24 19.7285 20.4253 17.5564 20.4253H18.3008C19.5215 20.4253 20.2526 19.4826 20.3666 18.5486C20.4785 17.6315 19.9955 16.7228 18.797 16.7228H19.6034C22.0847 16.6577 22.2088 12.7651 19.7895 12.7651H25.7286C28.2729 12.6999 27.9007 9.1265 25.7286 9.1265L17.7924 9.1265H11.7864L15.545 6.66315C16.7122 5.87219 16.3246 1.53951 13.2234 3.50795Z" fill="white"/>
<path d="M19.7895 12.7651H25.7286C28.2729 12.6999 27.9007 9.1265 25.7286 9.1265L17.7924 9.1265H11.7864L15.545 6.66315C16.7122 5.87219 16.3246 1.53951 13.2234 3.50795C13.2234 3.50795 12.0293 4.22595 5.08269 8.6304C-1.86389 13.0348 2.17261 24 9.6778 24H17.4944C19.4183 24 19.7285 20.4253 17.5564 20.4253M19.7895 12.7651L15.2602 12.7651M19.7895 12.7651C22.2088 12.7651 22.0847 16.6577 19.6034 16.7228H18.797M18.797 16.7228H15.2602M18.797 16.7228C19.9955 16.7228 20.4785 17.6315 20.3666 18.5486C20.2526 19.4826 19.5215 20.4253 18.3008 20.4253H17.5564M17.5564 20.4253H15.2602" stroke="#222529" stroke-width="2" stroke-linecap="round" stroke-linejoin="round"/>
</g>
<defs>
<clipPath id="clip0_1186_85428">
<rect width="32" height="32" fill="white" transform="translate(0.5)"/>
</clipPath>
</defs>
</svg>
