<svg width="41" height="40" viewBox="0 0 41 40" fill="none" xmlns="http://www.w3.org/2000/svg">
<g clip-path="url(#clip0_1138_85176)">
<path d="M7.58557 19.5277C7.58557 19.5277 7.97001 20.867 10.4265 28.7169C12.883 36.5667 24.5192 35.5057 26.4617 28.2563L28.4848 20.7061C28.9827 18.8476 25.6101 17.6228 25.0479 19.7209L25.2405 19.0019C25.5565 17.8228 24.8352 16.8726 23.9625 16.5208C23.1056 16.1753 22.1029 16.4066 21.7927 17.5643L22.0014 16.7854C22.5807 14.3718 18.8528 13.2445 18.2267 15.5813L19.7638 9.84456C20.3594 7.3701 16.8114 6.80474 16.2492 8.90283L14.1952 16.5687L12.6407 22.3699L11.2341 18.1019C10.7722 16.7697 6.48682 16.0228 7.58557 19.5277Z" fill="white"/>
<path d="M18.2267 15.5813L19.7638 9.84456C20.3594 7.3701 16.8114 6.80474 16.2492 8.90283L14.1952 16.5687L12.6407 22.3699L11.2341 18.1019C10.7722 16.7697 6.48682 16.0228 7.58557 19.5277C7.58557 19.5277 7.97001 20.867 10.4265 28.7169C12.883 36.5667 24.5192 35.5057 26.4617 28.2563L28.4848 20.7061C28.9827 18.8476 25.6101 17.6228 25.0479 19.7209M18.2267 15.5813L17.0544 19.9563M18.2267 15.5813C18.8528 13.2445 22.5807 14.3718 22.0014 16.7854L21.7927 17.5643M21.7927 17.5643L20.8773 20.9806M21.7927 17.5643C22.1029 16.4066 23.1056 16.1753 23.9625 16.5208C24.8352 16.8726 25.5565 17.8228 25.2405 19.0019L25.0479 19.7209M25.0479 19.7209L24.4536 21.9388" stroke="#222529" stroke-width="2" stroke-linecap="round" stroke-linejoin="round"/>
</g>
<defs>
<clipPath id="clip0_1138_85176">
<rect width="32" height="32" fill="white" transform="translate(0.904053 30.9097) rotate(-75)"/>
</clipPath>
</defs>
</svg>
