<svg width="28" height="28" viewBox="0 0 28 28" fill="none" xmlns="http://www.w3.org/2000/svg">
<path d="M11 12C11 12.5523 10.5523 13 10 13C9.44772 13 9 12.5523 9 12C9 11.4477 9.44772 11 10 11C10.5523 11 11 11.4477 11 12Z" fill="black" fill-opacity="0.1"/>
<path fill-rule="evenodd" clip-rule="evenodd" d="M16 21L15.5 18.5L15 21H16ZM11 21L10.5 18.5L10 21H11ZM11 12C11 12.5523 10.5523 13 10 13C9.44772 13 9 12.5523 9 12C9 11.4477 9.44772 11 10 11C10.5523 11 11 11.4477 11 12Z" fill="black" fill-opacity="0.1"/>
<path fill-rule="evenodd" clip-rule="evenodd" d="M9 5C7.34315 5 6 6.34315 6 8V12.4189C6 13.3631 5.39579 14.2014 4.5 14.5C3.60421 14.7986 3 15.6369 3 16.5811V22C3 23.6569 4.34315 25 6 25H20C21.6569 25 23 23.6569 23 22V16.5811C23 15.6369 22.3958 14.7986 21.5 14.5C20.6042 14.2014 20 13.3631 20 12.4189V8C20 6.34315 18.6569 5 17 5H14H12H9ZM10 13C10.5523 13 11 12.5523 11 12C11 11.4477 10.5523 11 10 11C9.44772 11 9 11.4477 9 12C9 12.5523 9.44772 13 10 13ZM15.5 13C16.3284 13 17 12.3284 17 11.5C17 10.6716 16.3284 10 15.5 10C14.6716 10 14 10.6716 14 11.5C14 12.3284 14.6716 13 15.5 13ZM6 21L8 16H18L20 21H16H15H11H10H6Z" fill="black" fill-opacity="0.1"/>
<path d="M10 21H6L8 16H18L20 21H16M10 21L10.5 18.5L11 21M10 21H11M11 21H15M16 21L15.5 18.5L15 21M16 21H15M12 5C11 4.33333 9 2.6 9 1C8.66667 1.83333 8.2 3.8 9 5M12 5H9M12 5H14M9 5V5C7.34315 5 6 6.34315 6 8V12.4189C6 13.3631 5.39579 14.2014 4.5 14.5V14.5C3.60421 14.7986 3 15.6369 3 16.5811V22C3 23.6569 4.34315 25 6 25H20C21.6569 25 23 23.6569 23 22V16.5811C23 15.6369 22.3958 14.7986 21.5 14.5V14.5C20.6042 14.2014 20 13.3631 20 12.4189V8C20 6.34315 18.6569 5 17 5V5M14 5C15 4.33333 17 2.6 17 1C17.3333 1.83333 17.8 3.8 17 5M14 5H17M11 12C11 12.5523 10.5523 13 10 13C9.44772 13 9 12.5523 9 12C9 11.4477 9.44772 11 10 11C10.5523 11 11 11.4477 11 12ZM17 11.5C17 12.3284 16.3284 13 15.5 13C14.6716 13 14 12.3284 14 11.5C14 10.6716 14.6716 10 15.5 10C16.3284 10 17 10.6716 17 11.5Z" stroke="#222529" stroke-width="2" stroke-linecap="round" stroke-linejoin="round"/>
</svg>
