<svg width="28" height="28" viewBox="0 0 28 28" fill="none" xmlns="http://www.w3.org/2000/svg">
<path d="M12.7234 3.50795C12.7234 3.50795 11.5293 4.22595 4.58269 8.6304C-2.36389 13.0348 1.67261 24 9.1778 24H16.9944C18.9183 24 19.2285 20.4253 17.0564 20.4253H17.8008C19.0215 20.4253 19.7526 19.4826 19.8666 18.5486C19.9785 17.6315 19.4955 16.7228 18.297 16.7228H19.1034C21.5847 16.6577 21.7088 12.7651 19.2895 12.7651H25.2286C27.7729 12.6999 27.4007 9.1265 25.2286 9.1265H17.2924H11.2864L15.045 6.66315C16.2122 5.87219 15.8246 1.53951 12.7234 3.50795Z" fill="black" fill-opacity="0.1"/>
<path d="M19.2895 12.7651H25.2286C27.7729 12.6999 27.4007 9.1265 25.2286 9.1265H17.2924H11.2864L15.045 6.66315C16.2122 5.87219 15.8246 1.53951 12.7234 3.50795C12.7234 3.50795 11.5293 4.22595 4.58269 8.6304C-2.36389 13.0348 1.67261 24 9.1778 24H16.9944C18.9183 24 19.2285 20.4253 17.0564 20.4253M19.2895 12.7651H14.7602M19.2895 12.7651C21.7088 12.7651 21.5847 16.6577 19.1034 16.7228H18.297M18.297 16.7228H14.7602M18.297 16.7228C19.4955 16.7228 19.9785 17.6315 19.8666 18.5486C19.7526 19.4826 19.0215 20.4253 17.8008 20.4253H17.0564M17.0564 20.4253H14.7602" stroke="#222529" stroke-width="2" stroke-linecap="round" stroke-linejoin="round"/>
</svg>
