<svg width="28" height="28" viewBox="0 0 28 28" fill="none" xmlns="http://www.w3.org/2000/svg">
<path d="M4.57143 6.2C5.99159 6.2 7.14286 5.03594 7.14286 3.6C7.14286 2.16406 5.99159 1 4.57143 1C3.15127 1 2 2.16406 2 3.6C2 5.03594 3.15127 6.2 4.57143 6.2Z" fill="black" fill-opacity="0.1"/>
<path d="M14 6.2C15.4202 6.2 16.5714 5.03594 16.5714 3.6C16.5714 2.16406 15.4202 1 14 1C12.5798 1 11.4286 2.16406 11.4286 3.6C11.4286 5.03594 12.5798 6.2 14 6.2Z" fill="black" fill-opacity="0.1"/>
<path d="M14 16.6C15.4202 16.6 16.5714 15.4359 16.5714 14C16.5714 12.5641 15.4202 11.4 14 11.4C12.5798 11.4 11.4286 12.5641 11.4286 14C11.4286 15.4359 12.5798 16.6 14 16.6Z" fill="black" fill-opacity="0.1"/>
<path d="M4.57143 16.6C5.99159 16.6 7.14286 15.4359 7.14286 14C7.14286 12.5641 5.99159 11.4 4.57143 11.4C3.15127 11.4 2 12.5641 2 14C2 15.4359 3.15127 16.6 4.57143 16.6Z" fill="black" fill-opacity="0.1"/>
<path d="M23.4286 16.6C24.8487 16.6 26 15.4359 26 14C26 12.5641 24.8487 11.4 23.4286 11.4C22.0084 11.4 20.8571 12.5641 20.8571 14C20.8571 15.4359 22.0084 16.6 23.4286 16.6Z" fill="black" fill-opacity="0.1"/>
<path d="M14 27C15.4202 27 16.5714 25.8359 16.5714 24.4C16.5714 22.9641 15.4202 21.8 14 21.8C12.5798 21.8 11.4286 22.9641 11.4286 24.4C11.4286 25.8359 12.5798 27 14 27Z" fill="black" fill-opacity="0.1"/>
<path d="M23.4286 27C24.8487 27 26 25.8359 26 24.4C26 22.9641 24.8487 21.8 23.4286 21.8C22.0084 21.8 20.8571 22.9641 20.8571 24.4C20.8571 25.8359 22.0084 27 23.4286 27Z" fill="black" fill-opacity="0.1"/>
<path d="M7.14286 3.6C7.14286 5.03594 5.99159 6.2 4.57143 6.2M7.14286 3.6C7.14286 2.16406 5.99159 1 4.57143 1C3.15127 1 2 2.16406 2 3.6C2 5.03594 3.15127 6.2 4.57143 6.2M7.14286 3.6H11.4286M4.57143 6.2V11.4M4.57143 16.6C5.99159 16.6 7.14286 15.4359 7.14286 14C7.14286 12.5641 5.99159 11.4 4.57143 11.4M4.57143 16.6C3.15127 16.6 2 15.4359 2 14C2 12.5641 3.15127 11.4 4.57143 11.4M4.57143 16.6V20.0667M14 6.2C15.4202 6.2 16.5714 5.03594 16.5714 3.6C16.5714 2.16406 15.4202 1 14 1C12.5798 1 11.4286 2.16406 11.4286 3.6M14 6.2C12.5798 6.2 11.4286 5.03594 11.4286 3.6M14 6.2V11.4M14 16.6C15.4202 16.6 16.5714 15.4359 16.5714 14C16.5714 12.5641 15.4202 11.4 14 11.4M14 16.6C12.5798 16.6 11.4286 15.4359 11.4286 14C11.4286 12.5641 12.5798 11.4 14 11.4M14 16.6V21.8M16.5714 24.4C16.5714 25.8359 15.4202 27 14 27C12.5798 27 11.4286 25.8359 11.4286 24.4C11.4286 22.9641 12.5798 21.8 14 21.8M16.5714 24.4C16.5714 22.9641 15.4202 21.8 14 21.8M16.5714 24.4H20.8571M26 3.6C26 4.26591 25.7524 4.87334 25.3452 5.33333M26 3.6C26 2.93409 25.7524 2.32666 25.3452 1.86667M26 3.6H25.3452M23.4286 6.2V11.4M23.4286 6.2C22.77 6.2 22.1692 5.94966 21.7143 5.53796M23.4286 6.2C24.1901 6.2 24.8744 5.86525 25.3452 5.33333M23.4286 6.2V5.53796M20.8571 3.6C20.8571 4.37003 21.1882 5.06188 21.7143 5.53796M20.8571 3.6C20.8571 2.82997 21.1882 2.13812 21.7143 1.66204M20.8571 3.6H21.7143M23.4286 1C22.77 1 22.1692 1.25034 21.7143 1.66204M23.4286 1C24.1901 1 24.8744 1.33475 25.3452 1.86667M23.4286 1V1.66204M23.4286 16.6C24.8487 16.6 26 15.4359 26 14C26 12.5641 24.8487 11.4 23.4286 11.4M23.4286 16.6C22.0084 16.6 20.8571 15.4359 20.8571 14C20.8571 12.5641 22.0084 11.4 23.4286 11.4M23.4286 16.6V21.8M20.8571 24.4C20.8571 25.8359 22.0084 27 23.4286 27C24.8487 27 26 25.8359 26 24.4C26 22.9641 24.8487 21.8 23.4286 21.8M20.8571 24.4C20.8571 22.9641 22.0084 21.8 23.4286 21.8M4.57143 21.8V23.5333M4.57143 25.2667V27M21.7143 5.53796L23.4286 3.6M21.7143 5.53796V3.6M21.7143 5.53796H23.4286M23.4286 3.6L25.3452 5.33333M23.4286 3.6L21.7143 1.66204M23.4286 3.6L25.3452 1.86667M23.4286 3.6H21.7143M23.4286 3.6V5.53796M23.4286 3.6H25.3452M23.4286 3.6V1.66204M25.3452 5.33333L23.4286 5.53796M25.3452 5.33333V3.6M21.7143 1.66204V3.6M21.7143 1.66204H23.4286M25.3452 1.86667V3.6M25.3452 1.86667L23.4286 1.66204" stroke="#222529" stroke-width="2"/>
</svg>
