<svg width="28" height="28" viewBox="0 0 28 28" fill="none" xmlns="http://www.w3.org/2000/svg">
<path fill-rule="evenodd" clip-rule="evenodd" d="M4 24V4C4 3.44772 4.44772 3 5 3H8.5V9C8.5 9.55228 8.94772 10 9.5 10H18C18.5523 10 19 9.55228 19 9V3H20.5858C20.851 3 21.1054 3.10536 21.2929 3.29289L24.7071 6.70711C24.8946 6.89464 25 7.149 25 7.41421V24C25 24.5523 24.5523 25 24 25H20.5858V17C20.5858 16.4477 20.1381 16 19.5858 16H9.5C8.94772 16 8.5 16.4477 8.5 17V25H5C4.44772 25 4 24.5523 4 24Z" fill="black" fill-opacity="0.1"/>
<path d="M8.5 3V9C8.5 9.55228 8.94772 10 9.5 10H18C18.5523 10 19 9.55228 19 9V3M8.5 3H19M8.5 3H5M19 3H20.5858M16 5V8M8.5 25V17C8.5 16.4477 8.94772 16 9.5 16H19.5858C20.1381 16 20.5858 16.4477 20.5858 17V25M8.5 25H20.5858M8.5 25H5M20.5858 25H24M10.5 22H17.5M10.5 19H14M4 24V4M4 24C4 24.5523 4.44772 25 5 25M4 24V24C4 24.5523 4.44772 25 5 25V25M4 4C4 3.44772 4.44772 3 5 3M4 4V4C4 3.44772 4.44772 3 5 3V3M20.5858 3C20.851 3 21.1054 3.10536 21.2929 3.29289M20.5858 3V3C20.851 3 21.1054 3.10536 21.2929 3.29289V3.29289M21.2929 3.29289L24.7071 6.70711M24.7071 6.70711C24.8946 6.89464 25 7.149 25 7.41421M24.7071 6.70711V6.70711C24.8946 6.89464 25 7.149 25 7.41421V7.41421M25 7.41421V24M25 24C25 24.5523 24.5523 25 24 25M25 24V24C25 24.5523 24.5523 25 24 25V25" stroke="#222529" stroke-width="2"/>
</svg>
