<svg width="28" height="29" viewBox="0 0 28 29" fill="none" xmlns="http://www.w3.org/2000/svg">
<path d="M8.65919 12.0322L17.4969 6.5L17.5063 16.0892L17.4969 21.6214L8.65919 16.458V17.9332H6.75376C6.75376 17.9332 8.57557 21.9902 8.93993 23.0966C9.30429 24.2031 7.11812 24.9407 6.75376 24.2031C6.3894 23.4655 4 17.9332 4 17.9332H3.82942C0.0585489 17.9332 0.0551741 10.557 3.82942 10.557H8.65919V12.0322Z" fill="black" fill-opacity="0.1"/>
<path d="M17.4969 6.5L18.4969 6.49902C18.4966 6.13554 18.299 5.80088 17.981 5.62495C17.6629 5.44902 17.2744 5.45952 16.9663 5.65237L17.4969 6.5ZM17.4969 21.6214L16.9925 22.4848C17.3015 22.6654 17.6834 22.667 17.994 22.4891C18.3045 22.3112 18.4963 21.981 18.4969 21.6231L17.4969 21.6214ZM8.65919 10.557H9.65919V9.55696H8.65919V10.557ZM8.65919 17.9332V18.9332H9.65919V17.9332H8.65919ZM8.93993 23.0966L7.9901 23.4094L8.93993 23.0966ZM23 13.5H22V15.5H23V13.5ZM27 15.5H28V13.5H27V15.5ZM21.4345 9.7322L20.6098 10.2977L21.7407 11.9472L22.5655 11.3817L21.4345 9.7322ZM25.5655 9.32475L26.3902 8.75926L25.2593 7.10975L24.4345 7.67525L25.5655 9.32475ZM22.5547 17.6679L21.7227 17.1132L20.6132 18.7774L21.4453 19.3321L22.5547 17.6679ZM24.4453 21.3321L25.2773 21.8868L26.3868 20.2226L25.5547 19.6679L24.4453 21.3321ZM16.9663 5.65237L8.1286 11.1846L9.18979 12.8798L18.0275 7.34763L16.9663 5.65237ZM7.65919 12.0322V16.458H9.65919V12.0322H7.65919ZM8.15473 17.3214L16.9925 22.4848L18.0014 20.7579L9.16365 15.5945L8.15473 17.3214ZM9.65919 12.0322V10.557H7.65919V12.0322H9.65919ZM8.65919 9.55696H3.82942V11.557H8.65919V9.55696ZM3.82942 9.55696C2.50839 9.55696 1.51044 10.2225 0.880664 11.1461C0.271331 12.0398 -0.000245571 13.1707 2.38419e-07 14.2453C0.000246048 15.3199 0.272345 16.4507 0.881672 17.3441C1.51135 18.2674 2.50895 18.9332 3.82942 18.9332V16.9332C3.26445 16.9332 2.84755 16.677 2.53399 16.2173C2.20007 15.7276 2.00018 15.0143 2 14.2449C1.99982 13.4754 2.19939 12.7623 2.5331 12.2729C2.84635 11.8134 3.26332 11.557 3.82942 11.557V9.55696ZM9.65919 17.9332V16.458H7.65919V17.9332H9.65919ZM17.5063 12.401C17.5063 13.401 17.506 13.401 17.5057 13.401C17.5056 13.401 17.5052 13.401 17.505 13.401C17.5046 13.401 17.5043 13.401 17.504 13.401C17.5033 13.401 17.5028 13.401 17.5024 13.401C17.5017 13.401 17.5016 13.401 17.502 13.401C17.5028 13.401 17.5058 13.4011 17.5109 13.4012C17.521 13.4014 17.5393 13.402 17.5644 13.4033C17.6148 13.4059 17.6915 13.4114 17.7852 13.4227C17.9778 13.4459 18.2169 13.4907 18.4417 13.572C18.6717 13.6551 18.8302 13.756 18.9232 13.8569C18.9959 13.9357 19.0569 14.0408 19.0569 14.2451H21.0569C21.0569 13.5273 20.7992 12.941 20.3936 12.5011C20.0083 12.0833 19.5292 11.8384 19.1216 11.6911C18.7087 11.5418 18.3101 11.4714 18.0245 11.437C17.8791 11.4195 17.7565 11.4106 17.6675 11.406C17.6229 11.4037 17.5863 11.4024 17.5591 11.4018C17.5455 11.4014 17.5341 11.4013 17.5253 11.4012C17.5209 11.4011 17.5171 11.4011 17.5139 11.4011C17.5123 11.401 17.5109 11.401 17.5096 11.401C17.509 11.401 17.5084 11.401 17.5079 11.401C17.5076 11.401 17.5072 11.401 17.5071 11.401C17.5067 11.401 17.5063 11.401 17.5063 12.401ZM18.4969 21.6231L18.5063 16.0909L16.5063 16.0875L16.4969 21.6197L18.4969 21.6231ZM18.5063 16.0882L18.4969 6.49902L16.4969 6.50098L16.5063 16.0901L18.5063 16.0882ZM19.0569 14.2451C19.0569 14.4494 18.9959 14.5545 18.9232 14.6333C18.8302 14.7342 18.6717 14.8351 18.4417 14.9182C18.2169 14.9995 17.9778 15.0443 17.7852 15.0675C17.6915 15.0788 17.6148 15.0843 17.5644 15.0869C17.5393 15.0882 17.521 15.0888 17.5109 15.089C17.5058 15.0891 17.5028 15.0892 17.502 15.0892C17.5016 15.0892 17.5017 15.0892 17.5024 15.0892C17.5028 15.0892 17.5033 15.0892 17.504 15.0892C17.5043 15.0892 17.5046 15.0892 17.505 15.0892C17.5052 15.0892 17.5056 15.0892 17.5057 15.0892C17.506 15.0892 17.5063 15.0892 17.5063 16.0892C17.5063 17.0892 17.5067 17.0892 17.5071 17.0892C17.5072 17.0892 17.5076 17.0892 17.5079 17.0892C17.5084 17.0892 17.509 17.0892 17.5096 17.0892C17.5109 17.0892 17.5123 17.0892 17.5139 17.0891C17.5171 17.0891 17.5209 17.0891 17.5253 17.089C17.5341 17.0889 17.5455 17.0888 17.5591 17.0884C17.5863 17.0878 17.6229 17.0865 17.6675 17.0842C17.7565 17.0796 17.8791 17.0707 18.0245 17.0532C18.3101 17.0188 18.7087 16.9484 19.1216 16.7991C19.5292 16.6517 20.0083 16.4069 20.3936 15.9891C20.7992 15.5492 21.0569 14.9629 21.0569 14.2451H19.0569ZM3.82942 18.9332H4V16.9332H3.82942V18.9332ZM4 17.9332C3.08197 18.3297 3.08198 18.3298 3.082 18.3298C3.08202 18.3299 3.08204 18.3299 3.08208 18.33C3.08216 18.3302 3.08227 18.3304 3.08241 18.3308C3.08271 18.3315 3.08314 18.3325 3.08372 18.3338C3.08488 18.3365 3.0866 18.3405 3.08888 18.3457C3.09342 18.3563 3.10017 18.3719 3.10898 18.3923C3.1266 18.433 3.15248 18.4929 3.18554 18.5694C3.25166 18.7222 3.34651 18.9414 3.46146 19.2067C3.69133 19.7373 4.00169 20.4526 4.32351 21.191C4.95911 22.6496 5.66124 24.2493 5.85718 24.646L7.65034 23.7602C7.48193 23.4193 6.80717 21.884 6.15698 20.3921C5.83591 19.6553 5.52615 18.9414 5.29662 18.4116C5.18187 18.1468 5.08719 17.928 5.02122 17.7754C4.98823 17.6992 4.96242 17.6395 4.94486 17.5988C4.93609 17.5785 4.92937 17.563 4.92485 17.5525C4.9226 17.5473 4.92089 17.5433 4.91974 17.5407C4.91917 17.5394 4.91874 17.5384 4.91846 17.5377C4.91831 17.5374 4.91821 17.5371 4.91814 17.537C4.9181 17.5369 4.91808 17.5368 4.91806 17.5368C4.91804 17.5368 4.91803 17.5367 4 17.9332ZM5.85718 24.646C6.17662 25.2926 6.82121 25.4663 7.23145 25.4946C7.6691 25.5248 8.12246 25.4257 8.50873 25.2628C8.89311 25.1007 9.30884 24.8339 9.60421 24.4388C9.92083 24.0153 10.1014 23.4264 9.88975 22.7839L7.9901 23.4094C7.9817 23.3839 7.97606 23.3392 7.98603 23.2907C7.99487 23.2477 8.00976 23.2314 8.00238 23.2413C7.97893 23.2726 7.89367 23.3516 7.73151 23.42C7.57123 23.4876 7.43251 23.5037 7.36916 23.4994C7.34031 23.4974 7.36701 23.4938 7.42425 23.5232C7.49075 23.5574 7.587 23.632 7.65034 23.7602L5.85718 24.646ZM4 18.9332H6.75376V16.9332H4V18.9332ZM6.75376 18.9332H8.65919V16.9332H6.75376V18.9332ZM9.88975 22.7839C9.68975 22.1765 9.12051 20.836 8.62731 19.7014C8.37549 19.1221 8.13529 18.5779 7.95813 18.1787C7.86951 17.9791 7.79659 17.8155 7.74578 17.7018C7.72037 17.6449 7.70048 17.6005 7.68692 17.5702C7.68014 17.5551 7.67494 17.5435 7.67142 17.5357C7.66966 17.5317 7.66832 17.5288 7.66742 17.5267C7.66696 17.5257 7.66662 17.525 7.66638 17.5244C7.66626 17.5242 7.66617 17.524 7.66611 17.5238C7.66608 17.5238 7.66605 17.5237 7.66604 17.5237C7.66602 17.5236 7.66601 17.5236 6.75376 17.9332C5.84152 18.3429 5.84152 18.3429 5.84153 18.3429C5.84154 18.3429 5.84156 18.343 5.84158 18.343C5.84163 18.3431 5.8417 18.3433 5.84181 18.3435C5.84201 18.344 5.84233 18.3447 5.84275 18.3456C5.8436 18.3475 5.84488 18.3504 5.84658 18.3542C5.84998 18.3617 5.85505 18.3731 5.8617 18.3879C5.875 18.4176 5.89461 18.4614 5.91973 18.5176C5.96997 18.6301 6.04223 18.7921 6.1301 18.9901C6.30591 19.3862 6.54393 19.9254 6.79311 20.4987C7.3019 21.6692 7.82575 22.9103 7.9901 23.4094L9.88975 22.7839ZM23 15.5H27V13.5H23V15.5ZM22.5655 11.3817L25.5655 9.32475L24.4345 7.67525L21.4345 9.7322L22.5655 11.3817ZM21.4453 19.3321L24.4453 21.3321L25.5547 19.6679L22.5547 17.6679L21.4453 19.3321Z" fill="#222529"/>
</svg>
