<svg width="28" height="28" viewBox="0 0 28 28" fill="none" xmlns="http://www.w3.org/2000/svg">
<path fill-rule="evenodd" clip-rule="evenodd" d="M24 12C24 10.8954 23.1046 10 22 10H14H6C4.89543 10 4 10.8954 4 12V14V18V22C4 23.1046 4.89543 24 6 24H10V21H18V24H22C23.1046 24 24 23.1046 24 22V18V14V12ZM10 18C11.1046 18 12 17.1046 12 16C12 14.8954 11.1046 14 10 14C8.89543 14 8 14.8954 8 16C8 17.1046 8.89543 18 10 18ZM20 16C20 17.1046 19.1046 18 18 18C16.8954 18 16 17.1046 16 16C16 14.8954 16.8954 14 18 14C19.1046 14 20 14.8954 20 16Z" fill="black" fill-opacity="0.1"/>
<path d="M10 24H6C4.89543 24 4 23.1046 4 22V18M10 24V21H18V24M10 24H18M18 24H22C23.1046 24 24 23.1046 24 22V18M4 14V12C4 10.8954 4.89543 10 6 10H14M4 14H3C1.89543 14 1 14.8954 1 16V16C1 17.1046 1.89543 18 3 18H4M4 14V18M24 14V12C24 10.8954 23.1046 10 22 10H14M24 14H25C26.1046 14 27 14.8954 27 16V16C27 17.1046 26.1046 18 25 18H24M24 14V18M14 10V7M12 16C12 17.1046 11.1046 18 10 18C8.89543 18 8 17.1046 8 16C8 14.8954 8.89543 14 10 14C11.1046 14 12 14.8954 12 16ZM20 16C20 17.1046 19.1046 18 18 18C16.8954 18 16 17.1046 16 16C16 14.8954 16.8954 14 18 14C19.1046 14 20 14.8954 20 16Z" stroke="#222529" stroke-width="2" stroke-linecap="round" stroke-linejoin="round"/>
<circle cx="14" cy="5" r="2" fill="black" fill-opacity="0.1" stroke="#222529" stroke-width="2" stroke-linecap="round" stroke-linejoin="round"/>
</svg>
