<svg width="28" height="28" viewBox="0 0 28 28" fill="none" xmlns="http://www.w3.org/2000/svg">
<path d="M23.5 18C23.7761 18 24 17.7761 24 17.5V3.5C24 2.67157 23.3284 2 22.5 2H8V18H23H23.5Z" fill="black" fill-opacity="0.05"/>
<path d="M6.5 2C5.67157 2 5 2.67157 5 3.5V18H8V2H6.5Z" fill="black" fill-opacity="0.05"/>
<path d="M8 27L10.1877 25.2499C10.3703 25.1038 10.6297 25.1038 10.8123 25.2499L13 27V24V21.5C13 21.2239 12.7761 21 12.5 21H8V24V27Z" fill="black" fill-opacity="0.05"/>
<path d="M24 25C24.5523 25 25 24.5523 25 24C25 23.4477 24.5523 23 24 23V25ZM8 21V20H7V21H8ZM8 27H7C7 27.3844 7.22035 27.7348 7.56681 27.9013C7.91328 28.0678 8.32453 28.021 8.6247 27.7809L8 27ZM13 27L12.3753 27.7809C12.6755 28.021 13.0867 28.0678 13.4332 27.9013C13.7797 27.7348 14 27.3844 14 27H13ZM10.1877 25.2499L9.56296 24.469L10.1877 25.2499ZM10.8123 25.2499L11.437 24.469L10.8123 25.2499ZM4 3.5V18H6V3.5H4ZM23 3.5V17.5H25V3.5H23ZM8.6247 27.7809L10.8123 26.0307L9.56296 24.469L7.3753 26.2191L8.6247 27.7809ZM10.1877 26.0307L12.3753 27.7809L13.6247 26.2191L11.437 24.469L10.1877 26.0307ZM4 18V22.5H6V18H4ZM5 19H8V17H5V19ZM6.5 3H8V1H6.5V3ZM8 3H22.5V1H8V3ZM9 18V2H7V18H9ZM8 22H23V20H8V22ZM7 21V24H9V21H7ZM7 24V27H9V24H7ZM14 27V24H12V27H14ZM14 24V21.5H12V24H14ZM8 23H6.5V25H8V23ZM12.5 20H8V22H12.5V20ZM8 19H23V17H8V19ZM23 19H23.5V17H23V19ZM24 23H23V25H24V23ZM23 23H13V25H23V23ZM22 18V24H24V18H22ZM4 22.5C4 23.8807 5.11929 25 6.5 25V23C6.22386 23 6 22.7761 6 22.5H4ZM14 21.5C14 20.6716 13.3284 20 12.5 20V22C12.2239 22 12 21.7761 12 21.5H14ZM23 17.5C23 17.2239 23.2239 17 23.5 17V19C24.3284 19 25 18.3284 25 17.5H23ZM10.8123 26.0307C10.6297 26.1768 10.3703 26.1768 10.1877 26.0307L11.437 24.469C10.8892 24.0307 10.1108 24.0307 9.56296 24.469L10.8123 26.0307ZM6 3.5C6 3.22386 6.22386 3 6.5 3V1C5.11929 1 4 2.11929 4 3.5H6ZM25 3.5C25 2.11929 23.8807 1 22.5 1V3C22.7761 3 23 3.22386 23 3.5H25Z" fill="black"/>
</svg>
