<svg width="28" height="28" viewBox="0 0 28 28" fill="none" xmlns="http://www.w3.org/2000/svg">
<path d="M15.7169 6.90922C14.8564 8.20092 12.4905 8.47277 11.9999 7C11.4563 5.36791 13.264 3.96369 14.2452 2C15.6762 3.61435 16.698 5.43646 15.7169 6.90922Z" fill="black" fill-opacity="0.1"/>
<path fill-rule="evenodd" clip-rule="evenodd" d="M2.96216 27H25.0376V20.1271H24.6624C24.2673 20.1271 23.8811 20.0101 23.5525 19.7908L22.1421 18.8499C21.5115 18.4292 20.6973 18.4012 20.0393 18.7774L18.672 19.5593C18.0568 19.9111 17.3015 19.9111 16.6863 19.5593L15.238 18.7311C14.6229 18.3794 13.8675 18.3794 13.2524 18.7311L11.804 19.5593C11.1889 19.9111 10.4335 19.9111 9.81839 19.5593L8.45105 18.7774C7.79303 18.4012 6.97883 18.4292 6.34827 18.8499L4.9379 19.7908C4.60925 20.0101 4.22302 20.1271 3.82794 20.1271H2.96216V27ZM12.7735 14.236H15.2263V11.2905C15.2263 9.81772 12.7735 9.81772 12.7735 11.2905V14.236Z" fill="black" fill-opacity="0.1"/>
<path d="M2.96216 27H25.0376M2.96216 27V20.1271M2.96216 27H1.00122M26.9999 27H25.0376M25.0376 27V20.1271M12.7735 14.236V11.2905C12.7735 9.81772 15.2263 9.81772 15.2263 11.2905V14.236M12.7735 14.236H15.2263M12.7735 14.236H4.96216M15.2263 14.236H23.0376M2.96216 20.1271H3.82794C4.22302 20.1271 4.60925 20.0101 4.9379 19.7908L6.34827 18.8499C6.97883 18.4292 7.79303 18.4012 8.45105 18.7774L9.81839 19.5593C10.4335 19.9111 11.1889 19.9111 11.804 19.5593L13.2524 18.7311C13.8675 18.3794 14.6229 18.3794 15.238 18.7311L16.6863 19.5593C17.3015 19.9111 18.0568 19.9111 18.672 19.5593L20.0393 18.7774C20.6973 18.4012 21.5115 18.4292 22.1421 18.8499L23.5525 19.7908C23.8811 20.0101 24.2673 20.1271 24.6624 20.1271H25.0376M2.96216 20.1271V16.236M25.0376 20.1271V16.236M2.96216 16.236C2.96216 15.1314 3.85759 14.236 4.96216 14.236M2.96216 16.236V16.236C2.96216 15.1314 3.85759 14.236 4.96216 14.236V14.236M23.0376 14.236C24.1422 14.236 25.0376 15.1314 25.0376 16.236M23.0376 14.236V14.236C24.1422 14.236 25.0376 15.1314 25.0376 16.236V16.236M11.9999 7C12.4905 8.47277 14.8564 8.20092 15.7169 6.90922C16.698 5.43646 15.6762 3.61435 14.2452 2C13.264 3.96369 11.4563 5.36791 11.9999 7Z" stroke="#222529" stroke-width="2"/>
</svg>
