<svg width="358" height="112" viewBox="0 0 358 112" fill="none" xmlns="http://www.w3.org/2000/svg">
<path d="M108 0H48V8H24V16H8V24H0V44H108V0Z" fill="white"/>
<path d="M250 0H310V8H334V16H350V24H358V44H250V0Z" fill="white"/>
<path d="M108 88H48V80H24V72H8V64H0V44H108V88Z" fill="white"/>
<path d="M242 96H250V44H358V64H350V72H334V80H310V88H266V96H258V104H250V112H242V96Z" fill="white"/>
<rect x="108" width="142" height="88" fill="white"/>
<rect y="43" width="108" height="2" fill="white"/>
<rect width="108" height="2" transform="matrix(-1 0 0 1 358 43)" fill="white"/>
<rect x="50" width="58" height="2" fill="#222529"/>
<rect width="58" height="2" transform="matrix(-1 0 0 1 308 0)" fill="#222529"/>
<rect x="108" width="142" height="2" fill="#222529"/>
<rect x="50" y="86" width="58" height="2" fill="#222529"/>
<rect width="44" height="2" transform="matrix(-1 0 0 1 308 86)" fill="#222529"/>
<rect width="8" height="2" transform="matrix(-1 0 0 1 264 94)" fill="#222529"/>
<rect width="8" height="2" transform="matrix(-1 0 0 1 256 102)" fill="#222529"/>
<rect width="4" height="2" transform="matrix(-1 0 0 1 248 110)" fill="#222529"/>
<rect width="8" height="2" transform="matrix(-1 0 0 1 252 96)" fill="#222529"/>
<rect x="108" y="86" width="142" height="2" fill="#222529"/>
<rect x="24" y="8" width="24" height="2" fill="#222529"/>
<rect width="24" height="2" transform="matrix(-1 0 0 1 334 8)" fill="#222529"/>
<rect x="24" y="78" width="24" height="2" fill="#222529"/>
<rect width="24" height="2" transform="matrix(-1 0 0 1 334 78)" fill="#222529"/>
<rect x="8" y="16" width="16" height="2" fill="#222529"/>
<rect width="16" height="2" transform="matrix(-1 0 0 1 350 16)" fill="#222529"/>
<rect x="8" y="70" width="16" height="2" fill="#222529"/>
<rect width="16" height="2" transform="matrix(-1 0 0 1 350 70)" fill="#222529"/>
<rect y="24" width="8" height="2" fill="#222529"/>
<rect width="8" height="2" transform="matrix(-1 0 0 1 358 24)" fill="#222529"/>
<rect y="62" width="8" height="2" fill="#222529"/>
<rect width="8" height="2" transform="matrix(-1 0 0 1 358 62)" fill="#222529"/>
<rect x="48" width="2" height="10" fill="#222529"/>
<rect width="2" height="10" transform="matrix(-1 0 0 1 310 0)" fill="#222529"/>
<rect x="48" y="78" width="2" height="10" fill="#222529"/>
<rect width="2" height="10" transform="matrix(-1 0 0 1 310 78)" fill="#222529"/>
<rect width="2" height="8" transform="matrix(-1 0 0 1 266 88)" fill="#222529"/>
<rect width="2" height="8" transform="matrix(-1 0 0 1 258 96)" fill="#222529"/>
<rect width="2" height="10" transform="matrix(-1 0 0 1 252 86)" fill="#222529"/>
<rect width="2" height="8" transform="matrix(-1 0 0 1 250 104)" fill="#222529"/>
<rect width="2" height="16" transform="matrix(-1 0 0 1 244 96)" fill="#222529"/>
<rect x="24" y="10" width="2" height="8" fill="#222529"/>
<rect width="2" height="8" transform="matrix(-1 0 0 1 334 10)" fill="#222529"/>
<rect x="24" y="70" width="2" height="8" fill="#222529"/>
<rect width="2" height="8" transform="matrix(-1 0 0 1 334 70)" fill="#222529"/>
<rect x="8" y="18" width="2" height="8" fill="#222529"/>
<rect width="2" height="8" transform="matrix(-1 0 0 1 350 18)" fill="#222529"/>
<rect x="8" y="62" width="2" height="8" fill="#222529"/>
<rect width="2" height="8" transform="matrix(-1 0 0 1 350 62)" fill="#222529"/>
<rect y="26" width="2" height="17" fill="#222529"/>
<rect width="2" height="17" transform="matrix(-1 0 0 1 358 26)" fill="#222529"/>
<rect y="45" width="2" height="17" fill="#222529"/>
<rect width="2" height="17" transform="matrix(-1 0 0 1 358 45)" fill="#222529"/>
<rect y="43" width="2" height="2" fill="#222529"/>
<rect width="2" height="2" transform="matrix(-1 0 0 1 358 43)" fill="#222529"/>
</svg>
