<svg width="28" height="28" viewBox="0 0 28 28" fill="none" xmlns="http://www.w3.org/2000/svg">
<path d="M26 14C26 17.2243 24.7284 20.1516 22.6593 22.3077C20.4754 24.5834 17.4031 26 14 26C10.5969 26 7.52462 24.5834 5.34075 22.3077C3.27164 20.1516 2 17.2243 2 14C2 10.7757 3.27164 7.84842 5.34075 5.69231C7.52462 3.41661 10.5969 2 14 2C17.4031 2 20.4754 3.41661 22.6593 5.69231C24.7284 7.84842 26 10.7757 26 14Z" fill="black" fill-opacity="0.1"/>
<path d="M14 26C10.6863 26 8 20.6274 8 14C8 7.37258 10.6863 2 14 2M14 26C17.3137 26 20 20.6274 20 14C20 7.37258 17.3137 2 14 2M14 26V14M14 26C10.5969 26 7.52462 24.5834 5.34075 22.3077M14 26C17.4031 26 20.4754 24.5834 22.6593 22.3077M2 14H14M2 14C2 10.7757 3.27164 7.84842 5.34075 5.69231M2 14C2 17.2243 3.27164 20.1516 5.34075 22.3077M14 2V14M14 2C17.4031 2 20.4754 3.41661 22.6593 5.69231M14 2C10.5969 2 7.52462 3.41661 5.34075 5.69231M14 14H25.5385M22.6593 5.69231C20.4754 7.96801 17.4031 9.38462 14 9.38462C10.5969 9.38462 7.52462 7.96801 5.34075 5.69231M22.6593 5.69231C24.7284 7.84842 26 10.7757 26 14C26 17.2243 24.7284 20.1516 22.6593 22.3077M5.34075 22.3077C7.52462 20.032 10.5969 18.6154 14 18.6154C17.4031 18.6154 20.4754 20.032 22.6593 22.3077" stroke="#222529" stroke-width="2"/>
</svg>
