<svg width="28" height="28" viewBox="0 0 28 28" fill="none" xmlns="http://www.w3.org/2000/svg">
<path d="M11 21C11 20.4477 11.4477 20 12 20H15C15.5523 20 16 20.4477 16 21V22.5V24C16 24.5523 15.5523 25 15 25H12C11.4477 25 11 24.5523 11 24V22.5V21Z" fill="black" fill-opacity="0.1"/>
<path d="M26 22.5H16M16 22.5V21C16 20.4477 15.5523 20 15 20H12C11.4477 20 11 20.4477 11 21V22.5M16 22.5V24C16 24.5523 15.5523 25 15 25H12C11.4477 25 11 24.5523 11 24V22.5M11 22.5H2" stroke="#222529" stroke-width="2"/>
<path d="M19 13C19 12.4477 19.4477 12 20 12H23C23.5523 12 24 12.4477 24 13V14.5V16C24 16.5523 23.5523 17 23 17H20C19.4477 17 19 16.5523 19 16V14.5V13Z" fill="black" fill-opacity="0.1"/>
<path d="M26 14.5H24M24 14.5V13C24 12.4477 23.5523 12 23 12H20C19.4477 12 19 12.4477 19 13V14.5M24 14.5V16C24 16.5523 23.5523 17 23 17H20C19.4477 17 19 16.5523 19 16V14.5M19 14.5H2" stroke="#222529" stroke-width="2"/>
<path d="M4 5C4 4.44772 4.44772 4 5 4H8C8.55228 4 9 4.44772 9 5V6.5V8C9 8.55228 8.55228 9 8 9H5C4.44772 9 4 8.55228 4 8V6.5V5Z" fill="black" fill-opacity="0.1"/>
<path d="M26 6.5H9M9 6.5V5C9 4.44772 8.55228 4 8 4H5C4.44772 4 4 4.44772 4 5V6.5M9 6.5V8C9 8.55228 8.55228 9 8 9H5C4.44772 9 4 8.55228 4 8V6.5M4 6.5H2" stroke="#222529" stroke-width="2"/>
</svg>
