<svg width="28" height="28" viewBox="0 0 28 28" fill="none" xmlns="http://www.w3.org/2000/svg">
<g clip-path="url(#clip0_3405_91399)">
<rect x="4" y="2" width="14" height="24" rx="3" fill="black" fill-opacity="0.1" stroke="#222529" stroke-width="2" stroke-linejoin="round"/>
<path d="M20.1601 23.5944L19.1642 23.5042L20.1601 23.5944ZM16.9019 26.3117L16.992 25.3158L16.9019 26.3117ZM19.0655 2.40943L18.9754 3.40536L19.0655 2.40943ZM21.7828 5.66767L22.7788 5.75782L21.7828 5.66767ZM11.0981 1.68823L11.1882 0.692306L11.0981 1.68823ZM20.7712 24.7252L19.7999 24.4876L20.7712 24.7252ZM17.1443 26.9264L17.3819 25.9551L17.1443 26.9264ZM22.8473 3.61385L22.6096 4.5852L22.8473 3.61385ZM25.0485 7.24079L26.0198 7.47842L25.0485 7.24079ZM15.0764 1.71285L15.314 0.741491L15.0764 1.71285ZM13.298 25.9855L13.3881 24.9896C12.867 24.9424 12.3976 25.305 12.3116 25.8211C12.2256 26.3373 12.5521 26.8325 13.0604 26.9568L13.298 25.9855ZM11.0079 2.68416L18.9754 3.40536L19.1557 1.41351L11.1882 0.692306L11.0079 2.68416ZM20.7869 5.57752L19.1642 23.5042L21.1561 23.6845L22.7788 5.75782L20.7869 5.57752ZM19.1642 23.5042C19.0646 24.6043 18.0921 25.4154 16.992 25.3158L16.8117 27.3076C19.0119 27.5068 20.9569 25.8847 21.1561 23.6845L19.1642 23.5042ZM18.9754 3.40536C20.0754 3.50494 20.8865 4.47745 20.7869 5.57752L22.7788 5.75782C22.9779 3.55768 21.3558 1.61266 19.1557 1.41351L18.9754 3.40536ZM14.8388 2.6842L22.6096 4.5852L23.0849 2.64249L15.314 0.741491L14.8388 2.6842ZM24.0771 7.00317L19.7999 24.4876L21.7426 24.9628L26.0198 7.47842L24.0771 7.00317ZM19.7999 24.4876C19.5374 25.5605 18.4548 26.2175 17.3819 25.9551L16.9066 27.8978C19.0525 28.4227 21.2176 27.1087 21.7426 24.9628L19.7999 24.4876ZM22.6096 4.5852C23.6826 4.84768 24.3396 5.93024 24.0771 7.00317L26.0198 7.47842C26.5448 5.33256 25.2308 3.16744 23.0849 2.64249L22.6096 4.5852ZM11.1882 0.692306C10.3602 0.617355 9.56548 0.801205 8.88793 1.17745L9.85889 2.92595C10.1969 2.73826 10.5919 2.6465 11.0079 2.68416L11.1882 0.692306ZM17.3819 25.9551L13.5356 25.0141L13.0604 26.9568L16.9066 27.8978L17.3819 25.9551ZM16.992 25.3158L13.3881 24.9896L13.2078 26.9814L16.8117 27.3076L16.992 25.3158ZM15.314 0.741491C14.2995 0.493311 13.2785 0.656975 12.4314 1.12449L13.3978 2.87551C13.8227 2.64098 14.3307 2.55992 14.8388 2.6842L15.314 0.741491Z" fill="#222529"/>
<path fill-rule="evenodd" clip-rule="evenodd" d="M10 13C10 13.5523 9.55228 14 9 14C8.44772 14 8 13.5523 8 13C8 12.4477 8.44772 12 9 12C9.55228 12 10 12.4477 10 13ZM14 13C14 13.5523 13.5523 14 13 14C12.4477 14 12 13.5523 12 13C12 12.4477 12.4477 12 13 12C13.5523 12 14 12.4477 14 13ZM9.65 15H12.35C12.4328 15 12.5005 15.0676 12.4961 15.1503C12.4247 16.5 11.3862 16.5 11 16.5C10.6138 16.5 9.57526 16.5 9.50387 15.1503C9.4995 15.0676 9.56716 15 9.65 15Z" fill="#222529"/>
</g>
<defs>
<clipPath id="clip0_3405_91399">
<rect width="28" height="28" fill="white"/>
</clipPath>
</defs>
</svg>
