<svg width="28" height="28" viewBox="0 0 28 28" fill="none" xmlns="http://www.w3.org/2000/svg">
<path fill-rule="evenodd" clip-rule="evenodd" d="M23.5197 17.9047C22.8083 16.8791 22.0897 15.843 22 14C22 7 21 3 14 3C7 3 6 7 6 14C6.02584 15.783 5.29186 16.8209 4.54353 17.879C3.77924 18.9597 3 20.0616 3 22H10H18H25C25 20.0387 24.2639 18.9774 23.5197 17.9047Z" fill="black" fill-opacity="0.1"/>
<path d="M14 3C21 3 22 7 22 14C22.0897 15.843 22.8083 16.8791 23.5197 17.9047C24.2639 18.9774 25 20.0387 25 22H18M14 3C7 3 6 7 6 14C6.02584 15.783 5.29186 16.8209 4.54353 17.879C3.77924 18.9597 3 20.0616 3 22H10M14 3V2M10 22C10 28 18 28 18 22M10 22H18" stroke="#222529" stroke-width="2" stroke-linecap="square"/>
</svg>
