<svg width="320" height="320" viewBox="0 0 320 320" fill="none" xmlns="http://www.w3.org/2000/svg">
<path fill-rule="evenodd" clip-rule="evenodd" d="M90 320V210H230V320H120V250H110V320H90ZM170 240H160V250H150V260H160V250H170V270H160V280H170V270H180V250H170V240ZM170 290H160V300H170V290Z" fill="#1F1D28" fill-opacity="0.63"/>
<path d="M80 210V200H60V190H50V170H40V130H50V110H60V100H80V90H100V80H110V70H120V60H130V50H150V40H200V50H220V60H230V70H240V80H250V100H260V140H270V150H280V190H270V200H260V210H80Z" fill="url(#paint0_linear_1206_86395)"/>
<path fill-rule="evenodd" clip-rule="evenodd" d="M170 120H180V130H170V120ZM190 140H180V130H190V140ZM200 140H190V150H180V160H170V170H180V160H190V150H200V160H210V170H220V160H210V150H200V140ZM210 130V140H200V130H210ZM210 130V120H220V130H210Z" fill="black"/>
<path fill-rule="evenodd" clip-rule="evenodd" d="M100 120H110V130H100V120ZM120 140H110V130H120V140ZM130 140H120V150H110V160H100V170H110V160H120V150H130V160H140V170H150V160H140V150H130V140ZM140 130V140H130V130H140ZM140 130V120H150V130H140Z" fill="black"/>
<path fill-rule="evenodd" clip-rule="evenodd" d="M170 190H220V200H210V220H190V200H170V190Z" fill="black"/>
<defs>
<linearGradient id="paint0_linear_1206_86395" x1="160" y1="40" x2="160" y2="210" gradientUnits="userSpaceOnUse">
<stop offset="0.233042" stop-color="white"/>
<stop offset="1" stop-color="#EBF2F3"/>
</linearGradient>
</defs>
</svg>
