<svg width="28" height="28" viewBox="0 0 28 28" fill="none" xmlns="http://www.w3.org/2000/svg">
<path fill-rule="evenodd" clip-rule="evenodd" d="M5 19C5 21.7614 7.23858 24 10 24H18C20.7614 24 23 21.7614 23 19V10C23 8.34315 21.6569 7 20 7H18H16H12H10H8C6.34315 7 5 8.34315 5 10V19ZM9 16C9.55228 16 10 15.5523 10 15C10 14.4477 9.55228 14 9 14C8.44772 14 8 14.4477 8 15C8 15.5523 8.44772 16 9 16ZM19 16C19.5523 16 20 15.5523 20 15C20 14.4477 19.5523 14 19 14C18.4477 14 18 14.4477 18 15C18 15.5523 18.4477 16 19 16ZM14 18.5V16.5L13 15.5H15L14 16.5V18.5H16V20.5C16 21.0523 15.5523 21.5 15 21.5H13C12.4477 21.5 12 21.0523 12 20.5V18.5H14Z" fill="black" fill-opacity="0.1"/>
<path d="M14 16.5V18.5M14 16.5L13 15.5H15L14 16.5ZM14 18.5H12M14 18.5H16M12 18.5V20.5C12 21.0523 12.4477 21.5 13 21.5H15C15.5523 21.5 16 21.0523 16 20.5V18.5M12 18.5C11.5 18.5 10.4 18.4 10 18M16 18.5C16.5 18.5 17.6 18.4 18 18M12 7V5C12 3.89543 11.1046 3 10 3V3C8.89543 3 8 3.89543 8 5V7M12 7H16M12 7H10M8 7V7C6.34315 7 5 8.34315 5 10V19C5 21.7614 7.23858 24 10 24H18C20.7614 24 23 21.7614 23 19V10C23 8.34315 21.6569 7 20 7V7M8 7H10M16 7V5C16 3.89543 16.8954 3 18 3V3C19.1046 3 20 3.89543 20 5V7M16 7H18M20 7H18M10 7C10.6667 8 12 9.6 12 12M18 7C17.3333 8 16 9.6 16 12M10 15C10 15.5523 9.55228 16 9 16C8.44772 16 8 15.5523 8 15C8 14.4477 8.44772 14 9 14C9.55228 14 10 14.4477 10 15ZM20 15C20 15.5523 19.5523 16 19 16C18.4477 16 18 15.5523 18 15C18 14.4477 18.4477 14 19 14C19.5523 14 20 14.4477 20 15Z" stroke="#222529" stroke-width="2" stroke-linecap="round" stroke-linejoin="round"/>
</svg>
