<svg width="28" height="28" viewBox="0 0 28 28" fill="none" xmlns="http://www.w3.org/2000/svg">
<path fill-rule="evenodd" clip-rule="evenodd" d="M15.7935 0C16.0087 0 16.1998 0.137715 16.2678 0.341886L17.1587 3.01443C17.2045 3.15185 17.3076 3.26265 17.4414 3.31815L19.1183 4.01381C19.2522 4.06939 19.4037 4.06405 19.5335 3.99919L22.0529 2.73949C22.2454 2.64324 22.4778 2.68097 22.63 2.83315L25.1664 5.36949C25.3185 5.52167 25.3563 5.75416 25.26 5.94665L24.0003 8.46602C23.9355 8.59577 23.9301 8.7473 23.9857 8.88128L24.6818 10.5586C24.7373 10.6924 24.8481 10.7955 24.9855 10.8413L27.6581 11.7322C27.8623 11.8002 28 11.9913 28 12.2065V15.7935C28 16.0087 27.8623 16.1998 27.6581 16.2678L24.9855 17.1587C24.8481 17.2045 24.7373 17.3076 24.6818 17.4414L23.9857 19.1187C23.9301 19.2527 23.9355 19.4042 24.0003 19.534L25.26 22.0534C25.3563 22.2458 25.3185 22.4783 25.1664 22.6305L22.63 25.1669C22.4778 25.319 22.2454 25.3568 22.0529 25.2605L19.5335 24.0008C19.4037 23.9359 19.2522 23.9306 19.1183 23.9862L17.4414 24.6818C17.3076 24.7374 17.2045 24.8482 17.1587 24.9856L16.2678 27.6581C16.1998 27.8623 16.0087 28 15.7935 28H12.2065C11.9913 28 11.8002 27.8623 11.7322 27.6581L10.8414 24.9858C10.7956 24.8482 10.6923 24.7374 10.5583 24.6819L8.88111 23.9876C8.74722 23.9321 8.59587 23.9375 8.46625 24.0023L5.94665 25.2621C5.75416 25.3584 5.52167 25.3206 5.36949 25.1685L2.83315 22.6321C2.68097 22.4799 2.64324 22.2475 2.73949 22.055L3.99924 19.5355C4.06407 19.4058 4.06943 19.2544 4.01392 19.1204L3.31812 17.4415C3.26264 17.3077 3.15181 17.2044 3.01433 17.1586L0.341886 16.2678C0.137715 16.1998 0 16.0087 0 15.7935V12.2065C0 11.9913 0.137715 11.8002 0.341886 11.7322L3.01453 10.8413C3.15189 10.7955 3.26266 10.6924 3.31819 10.5587L4.01369 8.88392C4.06934 8.74991 4.06403 8.59833 3.99914 8.46855L2.73949 5.94924C2.64324 5.75675 2.68097 5.52426 2.83315 5.37208L5.36949 2.83574C5.52167 2.68356 5.75416 2.64583 5.94665 2.74208L8.46579 4.00165C8.59567 4.06659 8.74737 4.07186 8.88144 4.01608L10.559 3.31824C10.6925 3.26267 10.7955 3.15197 10.8413 3.01471L11.7322 0.341886C11.8002 0.137715 11.9913 0 12.2065 0H15.7935ZM14 18C16.2091 18 18 16.2091 18 14C18 11.7909 16.2091 10 14 10C11.7909 10 10 11.7909 10 14C10 16.2091 11.7909 18 14 18Z" fill="url(#paint0_linear_1180:85558)"/>
<path fill-rule="evenodd" clip-rule="evenodd" d="M15.6396 1C15.8548 1 16.0459 1.13772 16.114 1.34189L16.9279 3.78366C16.9737 3.92108 17.0768 4.03188 17.2106 4.08738L18.7376 4.72086C18.8716 4.77644 19.0231 4.7711 19.1528 4.70624L21.4546 3.55532C21.6471 3.45907 21.8796 3.4968 22.0318 3.64898L24.3506 5.96775C24.5027 6.11993 24.5405 6.35242 24.4442 6.54491L23.2933 8.84671C23.2285 8.97646 23.2231 9.12799 23.2787 9.26197L23.9126 10.7894C23.9681 10.9232 24.0789 11.0263 24.2163 11.0721L26.6581 11.886C26.8623 11.9541 27 12.1452 27 12.3604V15.6396C27 15.8548 26.8623 16.0459 26.6581 16.114L24.2163 16.9279C24.0789 16.9737 23.9681 17.0768 23.9126 17.2106L23.2787 18.738C23.2231 18.872 23.2285 19.0235 23.2933 19.1533L24.4442 21.4551C24.5405 21.6476 24.5027 21.8801 24.3506 22.0322L22.0318 24.351C21.8796 24.5032 21.6471 24.5409 21.4546 24.4447L19.1528 23.2938C19.0231 23.2289 18.8716 23.2236 18.7376 23.2791L17.2106 23.9126C17.0768 23.9681 16.9737 24.0789 16.9279 24.2163L16.114 26.6581C16.0459 26.8623 15.8548 27 15.6396 27H12.3604C12.1452 27 11.9541 26.8623 11.886 26.6581L11.0722 24.2165C11.0263 24.079 10.923 23.9681 10.7891 23.9127L9.26181 23.2804C9.12791 23.225 8.97656 23.2304 8.84694 23.2952L6.54491 24.4462C6.35242 24.5424 6.11993 24.5047 5.96775 24.3525L3.64898 22.0337C3.4968 21.8816 3.45907 21.6491 3.55532 21.4566L4.70628 19.1547C4.77112 19.025 4.77648 18.8736 4.72097 18.7396L4.08735 17.2108C4.03187 17.0769 3.92104 16.9737 3.78356 16.9279L1.34189 16.114C1.13772 16.0459 1 15.8548 1 15.6396V12.3604C1 12.1452 1.13772 11.9541 1.34189 11.886L3.78376 11.0721C3.92112 11.0263 4.03189 10.9232 4.08742 10.7895L4.72074 9.26442C4.77639 9.13041 4.77108 8.97884 4.70619 8.84906L3.55532 6.54732C3.45907 6.35483 3.4968 6.12234 3.64898 5.97016L5.96775 3.65139C6.11993 3.49921 6.35242 3.46148 6.54491 3.55773L8.84648 4.70851C8.97636 4.77345 9.12806 4.77872 9.26213 4.72295L10.7897 4.08747C10.9233 4.0319 11.0263 3.9212 11.072 3.78394L11.886 1.34189C11.9541 1.13772 12.1452 1 12.3604 1H15.6396ZM14 17.7143C16.0513 17.7143 17.7143 16.0513 17.7143 14C17.7143 11.9487 16.0513 10.2857 14 10.2857C11.9487 10.2857 10.2857 11.9487 10.2857 14C10.2857 16.0513 11.9487 17.7143 14 17.7143Z" stroke="#222529" stroke-width="2"/>
<defs>
<linearGradient id="paint0_linear_1180:85558" x1="2.07437e-07" y1="-0.381517" x2="6.91431" y2="32.4418" gradientUnits="userSpaceOnUse">
<stop stop-color="#F9C1AF"/>
<stop offset="1" stop-color="#F59CEC"/>
</linearGradient>
</defs>
</svg>
